<svg width="45" height="41" viewBox="0 0 45 41" fill="none" xmlns="http://www.w3.org/2000/svg">
<path d="M6.1 39.0001H38.9C41.1644 39.0001 43 37.1645 43 34.9001V13.5801C43 11.3157 41.1644 9.4801 38.9 9.4801H32.75L27.625 2.1001H17.375L12.25 9.4801H6.1C3.83563 9.4801 2 11.3157 2 13.5801V34.9001C2 37.1645 3.83563 39.0001 6.1 39.0001Z" stroke="white" stroke-width="3" stroke-linecap="round" stroke-linejoin="round"/>
<path d="M22.4998 30.8001C27.0285 30.8001 30.6998 27.1289 30.6998 22.6001C30.6998 18.0714 27.0285 14.4001 22.4998 14.4001C17.9711 14.4001 14.2998 18.0714 14.2998 22.6001C14.2998 27.1289 17.9711 30.8001 22.4998 30.8001Z" stroke="white" stroke-width="3" stroke-linecap="round" stroke-linejoin="round"/>
</svg>
