<svg width="23" height="21" viewBox="0 0 23 21" fill="none" xmlns="http://www.w3.org/2000/svg">
<path d="M22.0288 17.6188C22.0491 17.5806 22.0661 17.5432 22.0787 17.5018C22.0907 17.4624 22.097 17.4234 22.1015 17.3818C22.1065 17.3366 22.1073 17.293 22.1028 17.2469C22.1008 17.2262 22.1073 17.2068 22.1033 17.186L20.4835 8.79814C20.4776 8.76801 20.4597 8.74469 20.4501 8.7164C20.4409 8.68848 20.4415 8.65944 20.4282 8.63228C20.4215 8.61856 20.4091 8.61046 20.4016 8.59745C20.3775 8.55512 20.3474 8.5203 20.3153 8.48482C20.2894 8.45637 20.2658 8.4277 20.2359 8.40448C20.1996 8.37619 20.1598 8.35681 20.1183 8.33661C20.0822 8.31901 20.0483 8.30114 20.0097 8.29029C19.9709 8.27944 19.9313 8.27711 19.8902 8.2736C19.8426 8.26923 19.7967 8.26648 19.7485 8.27274C19.734 8.27463 19.7207 8.26966 19.706 8.27247C19.6769 8.27809 19.6546 8.29579 19.6272 8.30492C19.5986 8.31448 19.5688 8.31394 19.541 8.32776L17.1062 9.51797C17.495 8.74248 17.8124 7.77903 17.8124 6.68206C17.8124 3.21314 15.0005 0.389113 11.538 0.370972C11.5294 0.370972 11.5225 0.370972 11.5156 0.370972C11.5086 0.370972 11.5017 0.370972 11.4931 0.370972C8.02979 0.389113 5.21785 3.21314 5.21785 6.68206C5.21785 7.76877 5.52988 8.7246 5.91425 9.49686L2.87673 10.9816C2.8641 10.9878 2.85665 10.9994 2.84461 11.0062C2.79887 11.0319 2.76038 11.0643 2.7221 11.1001C2.69623 11.1244 2.67043 11.1466 2.64899 11.1743C2.62162 11.2096 2.60223 11.2489 2.58226 11.29C2.56309 11.329 2.54532 11.3666 2.53409 11.4086C2.52999 11.4241 2.51957 11.436 2.51649 11.452L0.896713 19.8399C0.892664 19.861 0.899251 19.8807 0.897253 19.9017C0.892718 19.9469 0.893582 19.9904 0.898495 20.0363C0.903408 20.081 0.911615 20.1226 0.925221 20.1647C0.931755 20.1854 0.929487 20.2066 0.93818 20.2269C0.949356 20.2529 0.967498 20.2729 0.981428 20.2967C0.993738 20.3177 1.00464 20.3382 1.01917 20.3577C1.06058 20.4136 1.10831 20.4621 1.16322 20.5015C1.17029 20.5066 1.17526 20.5136 1.18255 20.5184C1.24831 20.5618 1.32191 20.5894 1.39852 20.6072C1.40705 20.6092 1.41331 20.6152 1.42195 20.6169C1.46428 20.625 1.5058 20.6287 1.54646 20.6288C1.547 20.6288 1.54754 20.629 1.54808 20.629C1.63323 20.629 1.71524 20.6096 1.79164 20.5792C1.79763 20.5769 1.8039 20.578 1.80984 20.5754L7.76414 18.0236L15.0385 20.591C15.0435 20.5928 15.0485 20.592 15.0535 20.5936C15.1198 20.6153 15.1888 20.629 15.2596 20.629C15.341 20.629 15.4191 20.6096 15.4938 20.5811C15.5029 20.5777 15.5124 20.5793 15.5214 20.5754L21.7137 17.9216C21.7336 17.9131 21.7463 17.8963 21.765 17.8861C21.8045 17.8645 21.8392 17.8401 21.873 17.8115C21.9058 17.7838 21.9353 17.7558 21.9618 17.7229C21.9882 17.6901 22.009 17.656 22.0288 17.6188ZM3.75649 12.0284L6.60492 10.6361L7.81042 12.2756L7.35288 16.7557L2.43669 18.8626L3.75649 12.0284ZM8.23858 16.784L8.59066 13.3368L10.9696 16.5722C11.0948 16.7424 11.316 16.8426 11.5268 16.8426C11.7376 16.8426 11.9363 16.742 12.0615 16.5722L14.1752 13.6969L14.7242 19.073L8.23858 16.784ZM15.6146 19.0913L14.9554 12.6355L15.6316 11.7155L19.3451 9.90029L20.6992 16.9123L15.6146 19.0913ZM11.5156 1.69789C14.2575 1.70394 16.4855 3.93751 16.4855 6.68206C16.4855 7.97745 15.9084 9.07027 15.4194 9.76439C15.4177 9.76655 15.416 9.76828 15.4143 9.77044L11.5156 15.0742L7.63068 9.79031C7.62808 9.78729 7.62636 9.78426 7.62376 9.78124C7.13135 9.08754 6.54478 7.98696 6.54478 6.68206C6.54478 3.93751 8.77359 1.70394 11.5156 1.69789Z" fill="white"/>
<path d="M11.5268 9.48017C13.0671 9.48017 14.3206 8.22495 14.3206 6.68206C14.3206 5.13916 13.0671 3.88394 11.5268 3.88394C9.98561 3.88394 8.73212 5.13916 8.73212 6.68206C8.73212 8.22495 9.98561 9.48017 11.5268 9.48017ZM11.5268 4.76856C12.5798 4.76856 13.436 5.62682 13.436 6.68206C13.436 7.73729 12.5798 8.59555 11.5268 8.59555C10.4737 8.59555 9.61673 7.73729 9.61673 6.68206C9.61673 5.62682 10.4737 4.76856 11.5268 4.76856Z" fill="white"/>
</svg>
