<!-- icon666.com - MILLIONS vector ICONS FREE --><svg fill="#ffffff" width="23" height="23" viewBox="0 0 48 48" xmlns="http://www.w3.org/2000/svg"><g id="Layer_2"><g><path d="m18 3h-12c-1.654 0-3 1.346-3 3v12c0 1.654 1.346 3 3 3h12c1.654 0 3-1.346 3-3v-12c0-1.654-1.346-3-3-3zm1 15c0 .551-.448 1-1 1h-12c-.552 0-1-.449-1-1v-12c0-.551.448-1 1-1h12c.552 0 1 .449 1 1z"></path><path d="m18 27h-12c-1.654 0-3 1.346-3 3v12c0 1.654 1.346 3 3 3h12c1.654 0 3-1.346 3-3v-12c0-1.654-1.346-3-3-3zm1 15c0 .552-.448 1-1 1h-12c-.552 0-1-.448-1-1v-12c0-.552.448-1 1-1h12c.552 0 1 .448 1 1z"></path><path d="m42 3h-12c-1.654 0-3 1.346-3 3v12c0 1.654 1.346 3 3 3h12c1.654 0 3-1.346 3-3v-12c0-1.654-1.346-3-3-3zm1 15c0 .551-.448 1-1 1h-12c-.552 0-1-.449-1-1v-12c0-.551.448-1 1-1h12c.552 0 1 .449 1 1z"></path><path d="m42 27h-12c-1.654 0-3 1.346-3 3v12c0 1.654 1.346 3 3 3h12c1.654 0 3-1.346 3-3v-12c0-1.654-1.346-3-3-3zm1 15c0 .552-.448 1-1 1h-12c-.552 0-1-.448-1-1v-12c0-.552.448-1 1-1h12c.552 0 1 .448 1 1z"></path></g></g></svg>