<svg width="21" height="21" viewBox="0 0 21 21" fill="none" xmlns="http://www.w3.org/2000/svg">
<path d="M18.4062 8.20001C19.1315 8.61767 19.7196 9.23735 20.0988 9.98349C20.478 10.7296 20.6318 11.57 20.5416 12.402C20.4514 13.2341 20.121 14.022 19.5907 14.6695C19.0604 15.317 18.3532 15.7963 17.5552 16.0488C17.2732 17.3286 16.5626 18.4737 15.5409 19.2946C14.5193 20.1154 13.248 20.5628 11.9375 20.5625H9.78123C9.59061 20.5625 9.40779 20.4868 9.273 20.352C9.13821 20.2172 9.06248 20.0344 9.06248 19.8438C9.06248 19.6531 9.13821 19.4703 9.273 19.3355C9.40779 19.2007 9.59061 19.125 9.78123 19.125H11.9375C12.8296 19.1253 13.6999 18.8489 14.4285 18.334C15.157 17.8192 15.708 17.0911 16.0056 16.25H15.5312C15.3406 16.25 15.1578 16.1743 15.023 16.0395C14.8882 15.9047 14.8125 15.7219 14.8125 15.5313V8.34376C14.8125 8.15314 14.8882 7.97032 15.023 7.83553C15.1578 7.70074 15.3406 7.62501 15.5312 7.62501H16.25C16.4829 7.62501 16.7114 7.6437 16.9357 7.67964C16.7739 6.0853 16.026 4.60777 14.837 3.53334C13.648 2.45891 12.1025 1.86407 10.5 1.86407C8.89745 1.86407 7.35196 2.45891 6.16296 3.53334C4.97397 4.60777 4.22611 6.0853 4.06429 7.67964C4.29105 7.64332 4.52033 7.62505 4.74998 7.62501H5.46873C5.65936 7.62501 5.84217 7.70074 5.97696 7.83553C6.11176 7.97032 6.18748 8.15314 6.18748 8.34376V15.5313C6.18748 15.7219 6.11176 15.9047 5.97696 16.0395C5.84217 16.1743 5.65936 16.25 5.46873 16.25H4.74998C3.79977 16.2511 2.87581 15.9383 2.12165 15.3602C1.3675 14.7821 0.825384 13.9712 0.579529 13.0533C0.333674 12.1355 0.397849 11.1621 0.762082 10.2845C1.12631 9.40683 1.77021 8.67406 2.59373 8.20001C2.59373 6.10314 3.42671 4.09216 4.90942 2.60945C6.39213 1.12674 8.40311 0.293762 10.5 0.293762C12.5968 0.293762 14.6078 1.12674 16.0905 2.60945C17.5733 4.09216 18.4062 6.10314 18.4062 8.20001ZM4.74998 9.06251C3.98748 9.06251 3.25622 9.36541 2.71705 9.90458C2.17788 10.4437 1.87498 11.175 1.87498 11.9375C1.87498 12.7 2.17788 13.4313 2.71705 13.9704C3.25622 14.5096 3.98748 14.8125 4.74998 14.8125V9.06251ZM19.125 11.9375C19.125 11.175 18.8221 10.4437 18.2829 9.90458C17.7437 9.36541 17.0125 9.06251 16.25 9.06251V14.8125C17.0125 14.8125 17.7437 14.5096 18.2829 13.9704C18.8221 13.4313 19.125 12.7 19.125 11.9375Z" fill="white"/>
</svg>
