<svg width="23" height="23" viewBox="0 0 23 23" fill="none" xmlns="http://www.w3.org/2000/svg">
<path d="M18.2196 0.232094C18.3806 0.0580218 18.6501 0.0467913 18.8242 0.207761C18.9982 0.368731 19.0095 0.638263 18.8485 0.812335L15.3446 4.60449L15.339 4.61198C14.9103 5.13045 14.6165 5.60962 14.4855 6.04761C14.3694 6.43506 14.3863 6.78694 14.5585 7.09391C14.6502 7.25862 14.6202 7.46077 14.4986 7.59367L12.8346 9.39428C12.6717 9.21647 12.5426 9.07234 12.4565 8.97876C12.4172 8.92635 12.3723 8.87581 12.3255 8.82715L12.3217 8.83089C12.2993 8.80656 12.2749 8.7841 12.2506 8.76163L13.6731 7.22119C13.5065 6.77571 13.5084 6.30216 13.6619 5.79866C13.8266 5.25211 14.1766 4.67 14.6801 4.06356C14.6913 4.04858 14.7007 4.03361 14.7138 4.02051L18.2158 0.228351L18.2196 0.232094ZM10.6933 10.3901C10.5361 10.2141 10.5511 9.94271 10.727 9.78548C10.9029 9.62825 11.1743 9.64323 11.3316 9.81917C13.0929 11.792 18.5378 17.63 20.0464 19.8124C22.0361 22.6294 18.9552 23.5166 17.9332 22.4909C15.3802 20.0221 9.95958 13.7274 7.57685 11.0583C6.71959 11.4214 5.88666 11.4775 5.04999 11.238C4.14968 10.9815 3.26809 10.3807 2.3734 9.45792L2.36217 9.44669C1.68085 8.72794 1.1474 8.01855 0.761825 7.31665C0.366887 6.59415 0.125432 5.87915 0.0393319 5.16976C-0.0523836 4.40609 0.0187427 3.69482 0.224635 3.06404C0.46609 2.32283 0.894719 1.6958 1.45624 1.22973C2.02151 0.761798 2.71593 0.458575 3.49083 0.364988C4.13471 0.288246 4.83661 0.353758 5.56285 0.591469C6.56798 0.919024 7.73969 1.73323 8.71113 2.77767C9.428 3.54695 10.0419 4.44726 10.4069 5.37378C10.7869 6.3396 10.9029 7.33911 10.5978 8.27498C10.4182 8.82902 10.0925 9.34936 9.5871 9.81917C9.41303 9.98014 9.1435 9.96891 8.98253 9.79671C8.82156 9.62264 8.83279 9.35311 9.00499 9.19214C9.39618 8.82715 9.647 8.42846 9.78364 8.00732C10.0195 7.28296 9.92027 6.47998 9.60956 5.6901C9.28388 4.86279 8.73172 4.0542 8.08409 3.35978C7.20811 2.42016 6.1693 1.69206 5.29332 1.40568C4.69249 1.21102 4.11786 1.15486 3.5919 1.2185C2.98171 1.29337 2.43517 1.52734 1.99905 1.89233C1.56106 2.25732 1.22602 2.74959 1.03323 3.33545C0.866643 3.84643 0.808619 4.43416 0.885361 5.06868C0.958359 5.66764 1.16612 6.2797 1.50678 6.90486C1.86428 7.54687 2.35468 8.19637 2.98546 8.86084L2.9892 8.86645C3.77908 9.68066 4.53713 10.2048 5.2877 10.4181C5.9971 10.6203 6.71959 10.5417 7.4739 10.1654C7.6461 10.0662 7.86884 10.0999 8.00548 10.2534C10.3302 12.857 15.9847 19.41 18.4891 21.8376C19.5766 22.2812 20.1793 21.7347 19.659 20.7708C18.8485 19.2659 11.8856 11.7302 10.6933 10.3901ZM8.43598 14.1541L2.97797 20.0595C2.96674 20.0707 2.95738 20.0819 2.94428 20.0932C2.14692 20.9542 3.55821 22.2083 4.43419 21.3697L9.73497 15.6328L10.304 16.2786L5.04438 21.9705C5.03315 21.9836 5.02192 21.9949 5.00694 22.008C4.69249 22.2719 4.37616 22.4441 4.0561 22.5152C3.72667 22.5901 3.40286 22.5564 3.09215 22.4104C3.03974 22.3898 2.99107 22.3636 2.94802 22.3243L2.19371 21.6261C2.18248 21.6149 2.17125 21.6055 2.16002 21.5924C1.86803 21.2555 1.72952 20.8962 1.76695 20.5162C1.80252 20.1568 1.99343 19.8068 2.35468 19.4699L7.8651 13.5065L8.43598 14.1541ZM14.156 10.8486L14.4798 10.4986C14.6408 10.3245 14.9122 10.3133 15.0844 10.4743C15.2566 10.6353 15.2697 10.9048 15.1087 11.0789L14.7344 11.4832L14.156 10.8486ZM19.5504 1.48429C19.7114 1.31022 19.9809 1.29899 20.155 1.45996C20.329 1.62093 20.3403 1.89046 20.1793 2.06453L17.1078 5.39062C16.9468 5.56469 16.6773 5.57593 16.5032 5.41496C16.3291 5.25399 16.3179 4.98445 16.4789 4.81038L19.5504 1.48429ZM20.8793 2.71403C21.0403 2.53996 21.3098 2.52872 21.4839 2.68969C21.658 2.85067 21.6692 3.1202 21.5082 3.29427L18.4386 6.61849C18.2776 6.79256 18.0081 6.80379 17.834 6.64282C17.6599 6.48185 17.6487 6.21232 17.8097 6.03825L20.8793 2.71403ZM22.2569 3.99243C22.4179 3.81836 22.6874 3.80713 22.8615 3.9681C23.0356 4.12907 23.0468 4.40047 22.8858 4.57267L19.3819 8.3667C19.3688 8.3798 19.3557 8.39103 19.3426 8.40413C18.5453 9.17155 17.7835 9.61515 17.0554 9.74056C16.2655 9.8772 15.5411 9.65259 14.8767 9.07234C14.6988 8.91699 14.682 8.64559 14.8355 8.46964C14.9908 8.29183 15.2622 8.27498 15.4382 8.42846C15.8968 8.82902 16.3871 8.98624 16.9056 8.89453C17.4634 8.79907 18.0773 8.43034 18.7474 7.78458L18.7512 7.78084L22.2532 3.99056L22.2569 3.99243Z" fill="white"/>
</svg>
