<svg width="40" height="40" viewBox="0 0 40 40" fill="none" xmlns="http://www.w3.org/2000/svg">
<path d="M21.333 31.9994C21.7009 31.9994 21.9996 31.7015 21.9996 31.3328C21.9996 30.9648 21.7009 30.6662 21.333 30.6662H1.33334V12.9431L1.52864 13.1384C1.78926 13.3991 2.21066 13.3991 2.47128 13.1384L3.3333 12.2764L4.19532 13.1384C4.45601 13.3991 4.87734 13.3991 5.13796 13.1384L5.99997 12.2764L6.86199 13.1384C7.12269 13.3991 7.54401 13.3991 7.80463 13.1384L8.66664 12.2764L9.52866 13.1384C9.78936 13.3991 10.2107 13.3991 10.4713 13.1384L11.3333 12.2764L12.1953 13.1384C12.456 13.3991 12.8773 13.3991 13.138 13.1384L14 12.2764L14.862 13.1384C15.1227 13.3991 15.544 13.3991 15.8046 13.1384L16.6667 12.2764L17.5287 13.1384C17.7894 13.3991 18.2107 13.3991 18.4713 13.1384L19.3333 12.2764L20.1953 13.1384C20.456 13.3991 20.8774 13.3991 21.138 13.1384C21.3987 12.8777 21.3987 12.4564 21.138 12.1958L19.8046 10.8625C19.5439 10.6018 19.1226 10.6018 18.862 10.8625L18 11.7245L17.138 10.8625C16.8774 10.6018 16.456 10.6018 16.1953 10.8625L15.3333 11.7245L14.4713 10.8625C14.2106 10.6018 13.7893 10.6018 13.5287 10.8625L12.6666 11.7245L11.8046 10.8625C11.5439 10.6018 11.1226 10.6018 10.862 10.8625L9.99998 11.7245L9.13796 10.8625C8.87726 10.6018 8.45594 10.6018 8.19532 10.8625L7.33331 11.7245L6.47129 10.8625C6.21059 10.6018 5.78927 10.6018 5.52865 10.8625L4.66664 11.7245L3.80462 10.8625C3.544 10.6018 3.1226 10.6018 2.86198 10.8625L1.99996 11.7245L1.13795 10.8625C0.946624 10.6718 0.660613 10.6145 0.411321 10.7178C0.162653 10.8211 0 11.0644 0 11.3338V36.666C0 38.504 1.49536 39.9993 3.3333 39.9993H21.333C21.7009 39.9993 21.9996 39.7013 21.9996 39.3327C21.9996 38.9647 21.7009 38.666 21.333 38.666H3.3333C2.23066 38.666 1.33334 37.7694 1.33334 36.6661V31.9994H21.333Z" fill="white"/>
<path d="M1.36809 2.31199C1.48544 3.24666 1.90144 6.97722 1.35278 9.17187C1.26349 9.52921 1.48075 9.89115 1.83746 9.98053C1.89215 9.99451 1.94613 10.0005 2.00011 10.0005C2.29878 10.0005 2.5701 9.7985 2.64612 9.49585C2.98682 8.13454 2.99947 6.3259 2.92346 4.81124C3.97609 7.17987 3.99945 9.30648 3.99945 9.33452C4.00078 9.70249 4.29875 9.99982 4.66608 9.99982H4.66679C5.03475 9.99982 5.33279 9.70186 5.33279 9.33382C5.33279 9.19781 5.30677 6.6359 3.94883 3.8579C6.60542 5.99856 6.66542 9.17249 6.66613 9.33515C6.66683 9.70311 6.96542 10.0004 7.33276 10.0004C7.70072 10.0004 7.99938 9.70178 7.99938 9.33382C7.99938 9.27648 7.92673 3.62595 2.38417 1.44263L1.80418 0.862638C1.54348 0.60194 1.12216 0.60194 0.86154 0.862638C0.600841 1.12326 0.600841 1.54466 0.86154 1.80528L1.36809 2.31199Z" fill="white"/>
<path d="M22.6671 4.00065C22.6671 3.26597 22.0692 2.66731 21.3338 2.66669H10.6666C9.93194 2.66739 9.33398 3.26597 9.33398 4.00065V9.33391C9.33398 9.70258 9.63265 10.0005 10.0006 10.0005C10.3686 10.0005 10.6672 9.70258 10.6672 9.33391V3.99994L18.6671 4.00065V9.33391C18.6671 9.70258 18.9658 10.0005 19.3337 10.0005C19.7017 10.0005 20.0004 9.70258 20.0004 9.33391V4.00065H21.3337V8.66721C21.3337 9.03517 21.6324 9.33384 22.0003 9.33384C22.3683 9.33384 22.667 9.03517 22.667 8.66721V4.00065H22.6671Z" fill="white"/>
<path d="M27.9987 25.3336H33.3319C33.6999 25.3336 33.9986 25.0349 33.9986 24.6669C33.9986 24.299 33.6999 24.0003 33.3319 24.0003H27.9987C27.6307 24.0003 27.332 24.299 27.332 24.6669C27.332 25.0349 27.6307 25.3336 27.9987 25.3336Z" fill="white"/>
<path d="M39.5956 19.6317C39.7749 19.2724 39.999 18.8244 39.999 18.0004V12.6671C39.999 10.7392 38.8643 9.02117 36.9637 8.07056L34.6658 6.92191V5.33327C35.4011 5.33327 35.9991 4.73593 35.9991 3.99993V1.33334C35.999 0.597958 35.401 0 34.6657 0H27.9992C27.2639 0 26.6659 0.597958 26.6659 1.33334V3.99993C26.6659 4.73593 27.2638 5.33327 27.9992 5.33327V6.92191L25.7013 8.07056C23.8006 9.02125 22.666 10.7392 22.666 12.6671V18.0004C22.666 18.8244 22.89 19.2724 23.07 19.6317C23.2226 19.937 23.3326 20.1577 23.3326 20.667V31.3334C23.3326 31.8427 23.2226 32.0634 23.07 32.3687C22.89 32.728 22.666 33.1761 22.666 34V36.6666C22.666 38.5046 24.1613 39.9999 25.9993 39.9999H26.6659C27.4726 39.9999 28.0906 39.5033 28.6659 38.9426C29.2412 39.5033 29.8593 39.9999 30.6659 39.9999H31.9992C32.8058 39.9999 33.4239 39.5033 33.9992 38.9426C34.5745 39.5033 35.1925 39.9999 35.9991 39.9999H36.6658C38.5037 39.9999 39.9991 38.5047 39.9991 36.6666V34C39.9991 33.1761 39.7751 32.728 39.5957 32.3687C39.4431 32.0634 39.3324 31.8427 39.3324 31.3334V20.667C39.3323 20.1576 39.443 19.937 39.5956 19.6317ZM27.9991 1.33334H34.6657L34.6664 3.99993H33.3324V3.33393C33.3324 2.96596 33.0337 2.6673 32.6658 2.6673C32.2978 2.6673 31.9991 2.96596 31.9991 3.33393V3.99993H30.6658V3.33393C30.6658 2.96596 30.3671 2.6673 29.9992 2.6673C29.6312 2.6673 29.3325 2.96596 29.3325 3.33393V3.99993H27.9992V1.33334H27.9991ZM38.6657 18.0004C38.6657 18.5097 38.5557 18.7304 38.403 19.0357C38.223 19.395 37.999 19.843 37.999 20.667V30.6662H26.6659C26.2979 30.6662 25.9992 30.9649 25.9992 31.3328C25.9992 31.7015 26.2979 31.9995 26.6659 31.9995H38.0623C38.1403 32.4208 38.2797 32.7187 38.403 32.9647C38.5557 33.2701 38.6657 33.4908 38.6657 34V36.6666C38.6657 37.7693 37.7683 38.6666 36.6657 38.6666H35.9991C35.5991 38.6666 35.1291 38.1926 34.6311 37.6906L34.4704 37.5286C34.3457 37.4033 34.1757 37.3333 33.9991 37.3333C33.8225 37.3333 33.6531 37.4033 33.5278 37.5286L33.3671 37.6906C32.8691 38.1926 32.3991 38.6666 31.9991 38.6666H30.6658C30.2658 38.6666 29.7958 38.1926 29.2979 37.6906L29.1372 37.5286C28.8872 37.2786 28.4445 37.2786 28.1945 37.5286L28.0338 37.6906C27.5359 38.1926 27.0659 38.6666 26.6659 38.6666H25.9992C24.8966 38.6666 23.9993 37.7693 23.9993 36.6666V34C23.9993 33.4908 24.11 33.2701 24.2626 32.9647C24.4419 32.6055 24.666 32.1574 24.666 31.3334V21.333H35.9991C36.3671 21.333 36.6658 21.035 36.6658 20.6664C36.6658 20.2984 36.3671 19.9997 35.9991 19.9997H24.6025C24.5246 19.579 24.3852 19.2818 24.2626 19.0358C24.1099 18.7305 23.9992 18.5098 23.9992 18.0005V12.6672C23.9992 10.6326 25.6065 9.60929 26.2971 9.2639L28.9637 7.93057C29.1897 7.81721 29.3324 7.58659 29.3324 7.33394V5.33397H33.3323V7.33394C33.3323 7.58659 33.475 7.81729 33.701 7.93057L36.3676 9.2639C37.0583 9.60921 38.6655 10.6326 38.6655 12.6672V18.0004H38.6657Z" fill="white"/>
<path d="M34.6671 26.6669H28.0006C27.6327 26.6669 27.334 26.9655 27.334 27.3335C27.334 27.7015 27.6327 28.0001 28.0006 28.0001H34.6671C35.0351 28.0001 35.3338 27.7015 35.3338 27.3335C35.3338 26.9655 35.0351 26.6669 34.6671 26.6669Z" fill="white"/>
</svg>
