<!-- icon666.com - MILLIONS vector ICONS FREE --><svg width="40px" height="40px" fill="#fff" viewBox="0 0 512 512" xmlns="http://www.w3.org/2000/svg"><g id="_26_Barbeque" data-name="26 Barbeque"><g id="Filled"><path d="m272 288h56v16h-56z"></path><path d="m336 336h-80v-16h80zm-96 0h-16v-16h16z"></path><g id="Outline"><path d="m416 128a32.036 32.036 0 0 0 -32 32h16a16 16 0 1 1 16 16h-80.312c-2.029-23.045-13.733-38.781-16.376-44.35l-40.894 34.429c-7.816-23.9-39.038-29.961-55.144-10.368-16.874-23.899-44.284-19.123-47.274-19.711v12.305c-21.137-12.259-48 3-48 27.695h-32v16h32c0 24.641 26.809 39.986 48 27.695v12.305c3-.589 30.4 4.193 47.274-19.711 16.1 19.582 47.323 13.551 55.144-10.368l41.244 34.723c2.626-6.009 13.3-22.661 15.8-44.644h80.538a32 32 0 0 0 0-64zm-256 80a16.019 16.019 0 0 1 -16-16v-16a16 16 0 0 1 32 0v16a16.019 16.019 0 0 1 -16 16zm32 7.113v-62.226c14.288 3.281 24 15.363 24 31.113s-9.712 27.832-24 31.113zm72-23.113a16 16 0 0 1 -32 0v-16a16 16 0 0 1 32 0zm50.128 19.07-32.154-27.07 32.441-27.312c7.498 17.666 7.403 35.012-.287 54.382z"></path><path d="m360 112h-16v-32h16zm0-48h-16v-16h16z"></path><path d="m312 112h-16v-64h16zm0-80h-16v-16h16z"></path><path d="m264 112h-16v-48h16zm0-64h-16v-16h16zm0-32h-16v-16h16z"></path><path d="m216 112h-16v-64h16zm0-80h-16v-16h16z"></path><path d="m168 112h-16v-32h16zm0-48h-16v-16h16z"></path><path d="m509.939 477.592-50.123-104.192a96.1 96.1 0 0 0 52.184-85.4v-32h-512v32a96.1 96.1 0 0 0 52.435 85.532l-50.051 104.052a24 24 0 1 0 43.245 20.816l55.04-114.4h14.982l55.038 114.4a24 24 0 1 0 43.25-20.8l-45.023-93.6h174.484l-45.02 93.584a24 24 0 1 0 43.249 20.816l55.04-114.4h14.987l55.033 114.4a24 24 0 1 0 43.25-20.8zm-173.939-205.592h160v16a80 80 0 0 1 -160 0zm-320 16v-16h304v16a95.986 95.986 0 0 0 43 80h-267a80.091 80.091 0 0 1 -80-80zm15.209 203.465a8 8 0 0 1 -14.41-6.938l50.469-104.921a95.3 95.3 0 0 0 16.049 3.555zm168.315-6.93a8 8 0 0 1 -14.415 6.926l-51.702-107.461h17.754zm127.685 6.93a8 8 0 0 1 -14.41-6.938l48.36-100.527h17.754zm164.565 3.74a7.977 7.977 0 0 1 -10.665-3.743l-52.122-108.344a95.155 95.155 0 0 0 16.016-3.6l50.521 105.017a7.977 7.977 0 0 1 -3.75 10.67z"></path></g></g></g></svg>