<svg width="40" height="40" viewBox="0 0 40 40" fill="none" xmlns="http://www.w3.org/2000/svg">
<g clip-path="url(#clip0_115_291)">
<path d="M5.4784 35.3981L5.47121 35.3927C5.12871 35.1304 4.6384 35.1952 4.3759 35.5378C4.11356 35.8803 4.17856 36.3707 4.52098 36.6331L4.52817 36.6386C4.66989 36.7472 4.83692 36.7997 5.0027 36.7997C5.23746 36.7997 5.46965 36.6942 5.6234 36.4935C5.8859 36.1509 5.8209 35.6606 5.4784 35.3981Z" fill="white"/>
<path d="M5.4784 28.9919L5.47121 28.9864C5.12871 28.7242 4.6384 28.789 4.3759 29.1316C4.11356 29.4741 4.17856 29.9645 4.52098 30.2269L4.52817 30.2324C4.66989 30.341 4.83692 30.3935 5.0027 30.3935C5.23746 30.3935 5.46965 30.288 5.6234 30.0872C5.8859 29.7446 5.8209 29.2543 5.4784 28.9919Z" fill="white"/>
<path d="M5.4784 22.5856L5.47121 22.5802C5.12871 22.3179 4.6384 22.3827 4.3759 22.7253C4.11356 23.0678 4.17856 23.5582 4.52098 23.8206L4.52817 23.8261C4.66989 23.9347 4.83692 23.9872 5.0027 23.9872C5.23746 23.9872 5.46965 23.8817 5.6234 23.681C5.8859 23.3384 5.8209 22.8481 5.4784 22.5856Z" fill="white"/>
<path d="M35.4714 35.3957L35.4641 35.3902C35.1202 35.1296 34.6302 35.1971 34.3696 35.541C34.109 35.8848 34.1765 36.3749 34.5204 36.6355L34.5276 36.641C34.6688 36.748 34.8345 36.7997 34.9989 36.7997C35.2351 36.7997 35.4685 36.693 35.6222 36.4903C35.8828 36.1464 35.8152 35.6563 35.4714 35.3957Z" fill="white"/>
<path d="M35.4713 28.9895L35.4641 28.984C35.1202 28.7234 34.6302 28.7909 34.3695 29.1348C34.109 29.4786 34.1765 29.9686 34.5203 30.2293L34.5276 30.2347C34.6688 30.3417 34.8345 30.3934 34.9988 30.3934C35.235 30.3934 35.4684 30.2868 35.6221 30.084C35.8827 29.7402 35.8152 29.2501 35.4713 28.9895Z" fill="white"/>
<path d="M35.4714 22.5833L35.4641 22.5778C35.1202 22.3172 34.6302 22.3847 34.3696 22.7286C34.1089 23.0725 34.1765 23.5624 34.5204 23.823L34.5276 23.8285C34.6688 23.9354 34.8345 23.9872 34.9989 23.9872C35.235 23.9872 35.4685 23.8805 35.6222 23.6778C35.8828 23.334 35.8153 22.8439 35.4714 22.5833Z" fill="white"/>
<path d="M28.8656 25.625H28.8555C28.4241 25.625 28.0742 25.9748 28.0742 26.4062C28.0742 26.8377 28.424 27.1875 28.8555 27.1875H28.8656C29.297 27.1875 29.6469 26.8377 29.6469 26.4062C29.6469 25.9748 29.297 25.625 28.8656 25.625Z" fill="white"/>
<path d="M11.1449 32.0312H11.1348C10.7034 32.0312 10.3535 32.381 10.3535 32.8125C10.3535 33.244 10.7034 33.5938 11.1348 33.5938H11.1449C11.5763 33.5938 11.9262 33.244 11.9262 32.8125C11.9262 32.381 11.5764 32.0312 11.1449 32.0312Z" fill="white"/>
<path d="M6.31211 14.468C6.1668 14.3227 5.96523 14.2391 5.75977 14.2391C5.5543 14.2391 5.35273 14.3227 5.20742 14.468C5.06219 14.6133 4.97852 14.8149 4.97852 15.0211C4.97852 15.2266 5.06211 15.4274 5.20742 15.5727C5.35273 15.7188 5.55359 15.8016 5.75977 15.8016C5.96523 15.8016 6.1668 15.7188 6.31211 15.5727C6.45734 15.4274 6.54102 15.2266 6.54102 15.0211C6.54102 14.8149 6.45742 14.6141 6.31211 14.468Z" fill="white"/>
<path d="M39.2188 19.2188H35.9739C37.3702 18.4156 38.313 16.9097 38.313 15.1866C38.313 13.3979 37.2982 11.8056 35.7521 11.0309C36.0188 10.4379 36.1572 9.79391 36.1572 9.12867C36.1572 6.56508 34.0716 4.47937 31.5079 4.47937C30.6996 4.47937 29.9234 4.68328 29.2316 5.07352C28.3239 4.43383 27.2385 4.08703 26.118 4.08703C26.042 4.08703 25.9666 4.08969 25.8912 4.09281C25.0659 1.68672 22.7643 0.00375 20.1721 0.00375C17.8346 0.00375 15.7195 1.35758 14.7229 3.43203C14.5359 3.41469 14.3481 3.40594 14.1605 3.40594C11.7038 3.40594 9.52195 4.88945 8.59039 7.10156C8.42508 7.05109 8.25687 7.00703 8.08617 6.96883C8.1757 5.97031 8.49242 5.20484 9.03281 4.69016C9.50352 4.2418 9.97633 4.14891 9.99625 4.14516L9.98539 4.14695L9.98523 4.14609C10.1504 4.1218 10.3067 4.04562 10.4254 3.92641C10.5706 3.78109 10.6543 3.58031 10.6543 3.37484C10.6543 3.16859 10.5707 2.96781 10.4254 2.82172C10.2801 2.67641 10.0785 2.59281 9.87305 2.59281C9.82922 2.59281 9.7857 2.59742 9.74273 2.60477L9.7425 2.60344C9.27859 2.67648 8.64414 2.93648 8.05898 3.46477V0.78125C8.05898 0.349766 7.70914 0 7.27773 0H5.40273C4.97133 0 4.62148 0.349766 4.62148 0.78125V3.70242C3.72273 2.60094 2.7525 1.95703 2.67727 1.90789C2.31641 1.6725 1.83375 1.77422 1.59773 2.13453C1.36164 2.49492 1.4625 2.97891 1.82234 3.2157C1.8482 3.23266 4.21188 4.81547 4.56305 7.09242C1.91938 7.88656 0 10.2101 0 12.9464C0 14.0833 0.648359 16.8131 1.28469 19.2188H0.78125C0.349844 19.2188 0 19.5685 0 20V39.2188C0 39.6502 0.349844 40 0.78125 40H39.2188C39.6502 40 40 39.6502 40 39.2188V20C40 19.5685 39.6502 19.2188 39.2188 19.2188ZM14.1605 4.96844C14.461 4.96844 14.762 4.99852 15.0552 5.05789C15.4367 5.13508 15.8168 4.91984 15.9466 4.55281C16.5789 2.76648 18.277 1.56625 20.1721 1.56625C22.019 1.56625 23.6672 2.71773 24.3362 4.38984C22.2259 5.1282 20.7077 7.13813 20.7077 9.49719C20.7077 9.92867 21.0575 10.2784 21.4889 10.2784C21.9203 10.2784 22.2702 9.92867 22.2702 9.49719C22.2702 7.37555 23.9962 5.64953 26.1179 5.64953C27.0587 5.64953 27.9648 5.99352 28.6691 6.6182C28.9468 6.86453 29.3597 6.88133 29.6566 6.65852C30.1938 6.25508 30.834 6.04187 31.5077 6.04187C33.2098 6.04187 34.5945 7.42664 34.5945 9.12867C34.5945 9.79781 34.384 10.4345 33.9855 10.9696C33.8297 11.1789 33.7886 11.4523 33.8762 11.6981C33.9637 11.944 34.1681 12.1299 34.4213 12.1938C35.7927 12.5395 36.7505 13.7702 36.7505 15.1866C36.7505 16.8887 35.3657 18.2734 33.6637 18.2734C33.4698 18.2734 33.2729 18.2545 33.0784 18.2173C32.6998 18.1445 32.3248 18.3591 32.1953 18.7223C32.1341 18.8939 32.0567 19.0601 31.9657 19.2188H30.9795L34.1786 14.6328C34.2988 14.4605 34.3445 14.2469 34.3054 14.0404C34.2663 13.8339 34.1455 13.6519 33.9706 13.5355L31.6929 12.0197C31.5155 11.9016 31.2973 11.861 31.0895 11.9077C30.8815 11.9542 30.7015 12.0837 30.5913 12.2662L29.4523 14.1521L30.3847 9.43578C30.4678 9.01477 30.1959 8.60547 29.7756 8.51906L27.7877 8.11023C27.5823 8.06789 27.3684 8.11008 27.1944 8.22711C27.0203 8.34414 26.9006 8.52625 26.8623 8.73242L26.6072 10.1023H24.784C24.3526 10.1023 24.0027 10.4521 24.0027 10.8836V15.3792C23.4835 12.7207 21.1377 10.7078 18.3295 10.7078C17.0641 10.7078 15.8623 11.1093 14.854 11.8689C14.0225 12.4952 13.3695 13.3477 12.9765 14.3062C13.076 13.7195 13.1251 13.2695 13.1251 12.9465C13.1251 11.887 12.8373 10.8893 12.3313 10.0182C12.7418 8.90141 13.8089 8.14273 15.0159 8.14273C15.2077 8.14273 15.3999 8.16203 15.5873 8.2C15.9691 8.27766 16.3497 8.0618 16.4793 7.69437C16.647 7.21953 16.9387 6.79477 17.323 6.46602C17.6509 6.18555 17.6893 5.69234 17.4088 5.36445C17.1284 5.03656 16.6353 4.9982 16.3073 5.27859C15.878 5.64578 15.5237 6.09094 15.2625 6.58711C15.1804 6.5825 15.0981 6.58023 15.016 6.58023C13.461 6.58023 12.0563 7.3943 11.2638 8.66398C10.8927 8.30672 10.4762 7.99148 10.0223 7.72664C10.7083 6.07648 12.3317 4.96844 14.1605 4.96844ZM28.5642 18.6449L31.5069 13.7727L32.4402 14.3938L29.0745 19.2188H28.4508L28.5642 18.6449ZM27.587 15.531V13.3617C27.5911 13.3453 27.5956 13.3291 27.5988 13.3122L28.2526 9.80094L28.7014 9.89328L27.587 15.531ZM25.5596 17.8635C25.563 17.8339 25.5652 17.8039 25.5652 17.7734V11.6648H26.0245V19.2188H25.778C25.7801 19.1698 25.7812 19.1209 25.7812 19.0717C25.7812 18.6459 25.7022 18.2387 25.5596 17.8635ZM14.8438 14.2188C14.8206 14.2188 14.7979 14.2202 14.7748 14.2205C15.5386 13.0345 16.877 12.2702 18.3295 12.2702C20.3937 12.2702 22.1152 13.7609 22.4771 15.7221C21.3961 15.7298 20.4381 16.2738 19.8453 17.106C18.8437 15.3816 16.9776 14.2188 14.8438 14.2188ZM18.9888 19.2188H10.8216H10.6988C11.0663 17.2647 12.7846 15.7812 14.8438 15.7812C16.903 15.7812 18.6213 17.2647 18.9888 19.2188ZM22.5 17.2841C23.4477 17.2841 24.2188 18.086 24.2188 19.0717C24.2188 19.121 24.2164 19.17 24.2126 19.2188H20.7873C20.7835 19.17 20.7812 19.121 20.7812 19.0717C20.7812 18.086 21.5523 17.2841 22.5 17.2841ZM6.18398 1.5625H6.49648V6.80133C6.39172 6.80234 6.2875 6.80516 6.18398 6.8107V1.5625ZM1.60914 12.3289C1.65789 12.3384 1.7082 12.3438 1.75969 12.3438H5.62203C6.05344 12.3438 6.40328 11.994 6.40328 11.5625C6.40328 11.131 6.05344 10.7812 5.62203 10.7812H2.15672C3.00125 9.34258 4.65914 8.36227 6.5625 8.36227C9.31953 8.36227 11.5625 10.4187 11.5625 12.9464C11.5625 13.1502 11.5299 13.5263 11.4058 14.2188H8.30273C7.87133 14.2188 7.52148 14.5685 7.52148 15C7.52148 15.4315 7.87133 15.7812 8.30273 15.7812H10.897C9.94906 16.6687 9.29992 17.8703 9.1168 19.2188H2.90164C2.04812 16.0323 1.5625 13.7619 1.5625 12.9464C1.5625 12.737 1.5793 12.5311 1.60914 12.3289ZM38.4375 25.625H31.5625C31.1311 25.625 30.7812 25.9748 30.7812 26.4062C30.7812 26.8377 31.1311 27.1875 31.5625 27.1875H38.4375V32.0312H13.7973C13.3659 32.0312 13.0161 32.381 13.0161 32.8125C13.0161 33.244 13.3659 33.5938 13.7973 33.5938H38.4375V38.4375H1.5625V33.5938H8.4375C8.86891 33.5938 9.21875 33.244 9.21875 32.8125C9.21875 32.381 8.86891 32.0312 8.4375 32.0312H1.5625V27.1875H26.2027C26.6341 27.1875 26.9839 26.8377 26.9839 26.4062C26.9839 25.9748 26.6341 25.625 26.2027 25.625H1.5625V20.7812H2.30336H38.4375V25.625Z" fill="white"/>
<path d="M19.1763 4.21875H19.166C18.7346 4.21875 18.3848 4.56852 18.3848 5C18.3848 5.43148 18.7346 5.78125 19.166 5.78125H19.1763C19.6077 5.78125 19.9576 5.43148 19.9576 5C19.9576 4.56852 19.6077 4.21875 19.1763 4.21875Z" fill="white"/>
</g>
<defs>
<clipPath id="clip0_115_291">
<rect width="40" height="40" fill="white"/>
</clipPath>
</defs>
</svg>
