<svg width="36" height="34" viewBox="0 0 36 34" fill="none" xmlns="http://www.w3.org/2000/svg">
<path d="M14.2898 24.2265C15.9574 24.2265 17.3141 22.8699 17.3141 21.2024C17.3141 19.5668 15.4978 18.0266 14.2898 16.7877C13.0664 18.0419 11.2656 19.5748 11.2656 21.2024C11.2656 22.8699 12.6223 24.2265 14.2898 24.2265Z" fill="white"/>
<path d="M5.30469 14.0703H8.82031C9.03602 14.0703 9.21094 14.2453 9.21094 14.461C9.21094 14.6767 9.03602 14.8516 8.82031 14.8516H5.30469V27.3516H16.6328C16.8485 27.3516 17.0234 27.5264 17.0234 27.7422C17.0234 27.958 16.8485 28.1328 16.6328 28.1328H5.30469V30.4766H23.2734V17.9766H20.5391C20.3233 17.9766 20.1484 17.8017 20.1484 17.586C20.1484 17.3702 20.3233 17.1953 20.5391 17.1953H23.2734V10.164H5.30469V14.0703ZM14.0027 15.9561C14.1572 15.7897 14.4209 15.7895 14.5754 15.9561C15.9124 17.397 18.0945 19.0822 18.0945 21.2024C18.0945 23.3007 16.3874 25.0078 14.2891 25.0078C12.1907 25.0078 10.4836 23.3007 10.4836 21.2024C10.4836 19.0796 12.6752 17.3866 14.0027 15.9561Z" fill="white"/>
<path d="M9.03703 3.91406L5.61914 9.38273H23.4478L26.8658 3.91406H9.03703ZM15.0705 7.03906H11.9455C11.7298 7.03906 11.5549 6.86422 11.5549 6.64844C11.5549 6.43273 11.7298 6.25781 11.9455 6.25781H15.0705C15.2863 6.25781 15.4612 6.43273 15.4612 6.64844C15.4612 6.86422 15.2863 7.03906 15.0705 7.03906ZM18.9768 7.82031H17.4143C17.1986 7.82031 17.0237 7.64547 17.0237 7.42969C17.0237 7.21398 17.1986 7.03906 17.4143 7.03906H18.9768C19.1926 7.03906 19.3674 7.21398 19.3674 7.42969C19.3674 7.64547 19.1926 7.82031 18.9768 7.82031Z" fill="white"/>
<path d="M5.30469 31.2578H23.2734V33.6016H5.30469V31.2578Z" fill="white"/>
<path d="M30.772 9.38275L27.5706 4.26056L24.3691 9.38275H30.772Z" fill="white"/>
<path d="M9.21094 0.789001H27.1797V3.13275H9.21094V0.789001Z" fill="white"/>
<path d="M24.0547 31.2578H31.0859V33.6016H24.0547V31.2578Z" fill="white"/>
<path d="M34.9922 2.35156C34.9922 1.49008 34.2912 0.789062 33.4297 0.789062C32.5681 0.789062 31.8672 1.49008 31.8672 2.35156C31.8672 3.21312 32.5681 3.91406 33.4297 3.91406C34.2912 3.91406 34.9922 3.21312 34.9922 2.35156Z" fill="white"/>
<path d="M2.96094 6.64844C2.96094 6.00227 2.43523 5.47656 1.78906 5.47656C1.14289 5.47656 0.617188 6.00227 0.617188 6.64844C0.617188 7.29461 1.14289 7.82031 1.78906 7.82031C2.43523 7.82031 2.96094 7.29461 2.96094 6.64844Z" fill="white"/>
<path d="M24.0547 10.164H31.0859V30.4766H24.0547V10.164Z" fill="white"/>
<path d="M34.6016 8.99219C35.033 8.99219 35.3828 8.64241 35.3828 8.21094C35.3828 7.77947 35.033 7.42969 34.6016 7.42969C34.1701 7.42969 33.8203 7.77947 33.8203 8.21094C33.8203 8.64241 34.1701 8.99219 34.6016 8.99219Z" fill="white"/>
<path d="M34.6016 23.0547C35.033 23.0547 35.3828 22.7049 35.3828 22.2734C35.3828 21.842 35.033 21.4922 34.6016 21.4922C34.1701 21.4922 33.8203 21.842 33.8203 22.2734C33.8203 22.7049 34.1701 23.0547 34.6016 23.0547Z" fill="white"/>
<path d="M1.78906 16.8047C2.22053 16.8047 2.57031 16.4549 2.57031 16.0234C2.57031 15.592 2.22053 15.2422 1.78906 15.2422C1.35759 15.2422 1.00781 15.592 1.00781 16.0234C1.00781 16.4549 1.35759 16.8047 1.78906 16.8047Z" fill="white"/>
<path d="M2.57031 29.3047C3.00178 29.3047 3.35156 28.9549 3.35156 28.5234C3.35156 28.092 3.00178 27.7422 2.57031 27.7422C2.13884 27.7422 1.78906 28.092 1.78906 28.5234C1.78906 28.9549 2.13884 29.3047 2.57031 29.3047Z" fill="white"/>
<path d="M4.91406 1.96094C5.34553 1.96094 5.69531 1.61116 5.69531 1.17969C5.69531 0.748215 5.34553 0.398438 4.91406 0.398438C4.48259 0.398438 4.13281 0.748215 4.13281 1.17969C4.13281 1.61116 4.48259 1.96094 4.91406 1.96094Z" fill="white"/>
</svg>
