<svg fill="#0082ce" width="50" height="50" enable-background="new 0 0 64 64" viewBox="0 0 64 64"
  xmlns="http://www.w3.org/2000/svg">
  <path d="m52.3 6.9c-.8-.7-2-.8-2.8 0-2.1 2.1-4.2 4.2-6.4 6.4-.2-.2-.4-.4-.6-.6-.8-.8-2.1-.8-2.8 0-1.8 1.8-3.6 3.6-5.4 5.4-.4-.4-.7-.7-1.1-1.1-.8-.8-2.1-.8-2.8 0-1.2 1.2-2.4 2.3-3.5 3.5-1 1.1-.7 2.9-.5 4.3-2.9 2.9-5.9 5.9-8.8 8.8-.6.6-.7 1.4-.4 2.2-.9.9-1.8 1.8-2.6 2.6s-.8 2.1 0 2.8l.4.4c-1.1 1.3-1.7 2.9-1.7 4.6 0 1.9.7 3.7 2.1 5.1s3.2 2.1 5.1 2.1 3.7-.7 5.1-2.1l10.2-10.3c1.1-1.1 3.1-1.1 4.3 0 1.2 1.2 1.2 3.1 0 4.3h-.1c-.5-.2-1.1-.4-1.7-.4-1.4-.1-2.9.5-3.9 1.5-.3.3-.5.5-.8.8-.9.9-1.8 1.8-2.6 2.6-.7.7-.8 2.1 0 2.8s2 .8 2.8 0l.8-.8 1.8 1.8c-.3.3-.5.5-.8.8-.7.7-.8 2.1 0 2.8s2 .8 2.8 0 1.5-1.5 2.3-2.3c1.1-1.1 2.3-2.2 2.6-3.9.2-1.1 0-2.2-.4-3.1 2.7-2.7 2.7-7.2 0-9.9-1.3-1.3-3.1-2.1-5-2.1s-3.6.7-5 2.1l-10.4 10.5c-1.2 1.2-3.2 1.2-4.5 0-.6-.6-.9-1.4-.9-2.2 0-.7.2-1.3.6-1.8.8.8 2.1.8 2.8 0 1-1 1.9-1.9 2.9-2.9.6.1 1.2-.1 1.6-.6 3-3 5.9-5.9 8.9-8.9 1.5.2 3.3.5 4.4-.5 1.2-1.1 2.3-2.3 3.4-3.4.8-.8.8-2.1 0-2.8-.2-.2-.5-.5-.7-.7l4.6-4.6c.3-.3.5-.5.8-.8.8-.8.8-2.1 0-2.8-.2-.2-.3-.3-.5-.5 1.8-1.8 3.6-3.6 5.4-5.4.3-.3.6-.6.9-.9.8-.8.8-2.1.1-2.8zm-14.4 42c.3 0 .5.1.7.2.3.2.6.5.7.9.1.2.1.6 0 .8 0 0-.1.1-.1.1s-1.8-1.8-1.8-1.8c.1 0 .1-.1.2-.1s.2-.1.3-.1zm-8-21.9c.9-1 .6-2.8.4-4.3.5-.5 1-1 1.5-1.5 1.9 1.9 3.8 3.8 5.7 5.7-.5.5-1 1-1.5 1.5-.4 0-.8 0-1.2 0-1.1 0-2.2-.4-3.1.5-.5.5-.9.9-1.4 1.4l-1.8-1.8c.5-.6.9-1 1.4-1.5zm-11.2 12.8c.4-.4.7-.7 1.1-1.1.1.1.3.3.4.4-.4.4-.7.7-1.1 1.1-.1-.1-.3-.2-.4-.4zm3.1-4.7c.2-.2.3-.3.5-.5l1.8 1.8c-.2.2-.3.3-.5.5-.6-.6-1.2-1.2-1.8-1.8zm3.3-3.4c.2-.2.3-.3.5-.5l1.8 1.8c-.2.2-.3.3-.5.5zm12-10.8c1.3-1.3 2.7-2.7 4-4 .3.3.7.7 1 1-1.3 1.3-2.7 2.7-4 4-.3-.3-.7-.6-1-1z"></path>
</svg>