<svg width="94" height="94" viewBox="0 0 94 94" fill="none" xmlns="http://www.w3.org/2000/svg">
<circle cx="47" cy="47" r="47" fill="url(#paint0_linear_359_4)"/>
<path d="M69.736 53.9305C70.3493 55.3681 69.8939 57.1763 68.3709 58.0637L48.6524 69.5537C47.6312 70.1488 46.3688 70.1488 45.3476 69.5537L25.6291 58.0637C24.106 57.1763 23.6506 55.3681 24.2642 53.9305L45.3909 65.8141C46.39 66.3761 47.6101 66.3761 48.6091 65.8141L69.736 53.9305ZM69.736 45.8833C70.3493 47.3211 69.8939 49.1294 68.3709 50.0168L48.6524 61.5064C47.6312 62.1015 46.3688 62.1015 45.3476 61.5064L25.6291 50.0168C24.106 49.1294 23.6506 47.3211 24.2642 45.8833L45.3909 57.7672C46.39 58.3291 47.6101 58.3291 48.6091 57.7672L69.736 45.8833ZM48.6586 24.4498L68.3771 35.9958C70.5436 37.2645 70.5403 40.3967 68.3709 41.6608L48.6524 53.1504C47.6312 53.7455 46.3688 53.7455 45.3476 53.1504L25.6291 41.6608C23.4596 40.3967 23.4563 37.2645 25.6231 35.9958L45.3415 24.4498C46.3658 23.8501 47.6341 23.8501 48.6586 24.4498V24.4498ZM45.3415 28.2517L27.2816 38.8265L45.3476 49.3534C46.3688 49.9485 47.6312 49.9485 48.6524 49.3534L66.7186 38.8265L48.6586 28.2517C47.6341 27.6519 46.3658 27.6519 45.3415 28.2517V28.2517Z" fill="white"/>
<defs>
<linearGradient id="paint0_linear_359_4" x1="79.5" y1="10.5" x2="6" y2="80" gradientUnits="userSpaceOnUse">
<stop stop-color="#62629F"/>
<stop offset="1" stop-color="#4E8BAE"/>
</linearGradient>
</defs>
</svg>
