<svg width="18" height="16" viewBox="0 0 18 16" fill="none" xmlns="http://www.w3.org/2000/svg">
<path d="M9 15.7063C8.6625 15.7063 8.29687 15.5938 8.04375 15.3407C7.39687 14.7782 6.75 14.2438 6.18749 13.7657C4.52812 12.3594 3.09374 11.15 2.08124 9.94065C0.899994 8.5344 0.337494 7.1844 0.337494 5.69378C0.337494 4.23127 0.843744 2.88128 1.77187 1.8969C2.69999 0.8844 3.99374 0.321899 5.39999 0.321899C6.44062 0.321899 7.42499 0.6594 8.26875 1.30627C8.52187 1.50315 8.775 1.72815 9 1.98127C9.225 1.72815 9.47812 1.50315 9.73125 1.30627C10.575 0.6594 11.5312 0.321899 12.6 0.321899C14.0062 0.321899 15.2719 0.8844 16.2281 1.8969C17.1562 2.88128 17.6625 4.23127 17.6625 5.69378C17.6625 7.1844 17.1 8.5344 15.9187 9.94065C14.9062 11.15 13.4719 12.3594 11.8125 13.7657C11.25 14.2438 10.6031 14.7782 9.95625 15.3407C9.70312 15.5657 9.3375 15.7063 9 15.7063ZM5.39999 1.27815C4.27499 1.27815 3.23437 1.72815 2.50312 2.54378C1.74374 3.3594 1.34999 4.45628 1.34999 5.66565C1.34999 6.90315 1.82812 8.05628 2.84062 9.29378C3.79687 10.4469 5.20312 11.6282 6.83437 13.0063C7.39687 13.4844 8.04375 14.0188 8.69062 14.6094C8.85937 14.75 9.14062 14.75 9.30937 14.6094C9.98437 14.0469 10.6031 13.4844 11.1656 13.0063C12.7969 11.6282 14.2031 10.4469 15.1594 9.29378C16.1719 8.05628 16.65 6.90315 16.65 5.66565C16.65 4.45628 16.2281 3.3594 15.4969 2.54378C14.7375 1.72815 13.725 1.27815 12.6 1.27815C11.7562 1.27815 10.9969 1.53127 10.35 2.06565C10.0687 2.26252 9.84375 2.51565 9.59062 2.7969C9.45 2.96565 9.225 3.07815 9 3.07815C8.775 3.07815 8.55 2.96565 8.40937 2.7969C8.18437 2.51565 7.93125 2.26252 7.65 2.06565C7.00312 1.5594 6.24375 1.27815 5.39999 1.27815Z" fill="black"/>
</svg>
