<svg width="23" height="23" viewBox="0 0 23 23" fill="none" xmlns="http://www.w3.org/2000/svg">
<path d="M15.2494 4.64343H7.03767C5.71695 4.64343 4.64258 5.66409 4.64258 6.91877V17.6454L9.43277 15.37L14.223 17.6454V11.7945H17.6445V6.91877C17.6445 5.66409 16.5702 4.64343 15.2494 4.64343ZM12.8543 15.5417L9.43277 13.9164L6.0112 15.5417V6.91877C6.0112 6.38114 6.47175 5.94363 7.03767 5.94363H13.0952C12.9386 6.24728 12.8562 6.58063 12.8543 6.91877V15.5417ZM16.2759 10.4943H14.223V6.91877C14.223 6.38114 14.6835 5.94363 15.2494 5.94363C15.8154 5.94363 16.2759 6.38114 16.2759 6.91877V10.4943Z" fill="#99A9FF"/>
<path d="M10.1181 7.89404H8.74949V9.19424H7.38086V10.4944H8.74949V11.7946H10.1181V10.4944H11.4867V9.19424H10.1181V7.89404Z" fill="#99A9FF"/>
<rect opacity="0.3" x="0.190438" y="0.190438" width="21.9082" height="21.9082" stroke="#99A9FF" stroke-width="0.380876"/>
</svg>
