<svg width="23" height="23" viewBox="0 0 23 23" fill="none" xmlns="http://www.w3.org/2000/svg">
<path d="M4.71875 7.14381C4.71875 6.48067 4.96337 5.84469 5.39878 5.37578C5.8342 4.90686 6.42475 4.64343 7.04053 4.64343H10.7554C11.3711 4.64343 11.9617 4.90686 12.3971 5.37578C12.8325 5.84469 13.0771 6.48067 13.0771 7.14381V7.64388H12.1484V7.14381C12.1484 6.74592 12.0017 6.36434 11.7404 6.08299C11.4792 5.80164 11.1248 5.64358 10.7554 5.64358H7.04053C6.67106 5.64358 6.31673 5.80164 6.05548 6.08299C5.79423 6.36434 5.64746 6.74592 5.64746 7.14381V11.1444C5.64746 11.5423 5.79423 11.9239 6.05548 12.2052C6.31673 12.4866 6.67106 12.6446 7.04053 12.6446H12.2274C12.3369 12.311 12.5525 12.0298 12.8359 11.8507C13.1194 11.6716 13.4525 11.6062 13.7763 11.6661C14.1002 11.7259 14.394 11.9072 14.6059 12.1777C14.8177 12.4483 14.9338 12.7908 14.9338 13.1447C14.9338 13.4986 14.8177 13.8411 14.6059 14.1117C14.394 14.3823 14.1002 14.5635 13.7763 14.6233C13.4525 14.6832 13.1194 14.6178 12.8359 14.4387C12.5525 14.2597 12.3369 13.9784 12.2274 13.6448H7.04053C6.42475 13.6448 5.8342 13.3814 5.39878 12.9124C4.96337 12.4435 4.71875 11.8075 4.71875 11.1444V7.14381ZM9.3623 14.6449V15.145C9.3623 15.8081 9.60692 16.4441 10.0423 16.913C10.4778 17.382 11.0683 17.6454 11.6841 17.6454H15.3989C16.0147 17.6454 16.6052 17.382 17.0407 16.913C17.4761 16.4441 17.7207 15.8081 17.7207 15.145V11.1444C17.7207 10.4813 17.4761 9.84529 17.0407 9.37638C16.6052 8.90746 16.0147 8.64403 15.3989 8.64403H10.2121C10.1025 8.31038 9.88699 8.02916 9.60354 7.8501C9.3201 7.67103 8.98699 7.60564 8.66311 7.66549C8.33922 7.72533 8.04541 7.90656 7.8336 8.17713C7.62178 8.44771 7.50561 8.79021 7.50561 9.14411C7.50561 9.498 7.62178 9.84051 7.8336 10.1111C8.04541 10.3817 8.33922 10.5629 8.66311 10.6227C8.98699 10.6826 9.3201 10.6172 9.60354 10.4381C9.88699 10.2591 10.1025 9.97784 10.2121 9.64418H15.3989C15.7684 9.64418 16.1227 9.80224 16.384 10.0836C16.6452 10.3649 16.792 10.7465 16.792 11.1444V15.145C16.792 15.5429 16.6452 15.9245 16.384 16.2058C16.1227 16.4872 15.7684 16.6452 15.3989 16.6452H11.6841C11.3146 16.6452 10.9603 16.4872 10.699 16.2058C10.4378 15.9245 10.291 15.5429 10.291 15.145V14.6449H9.3623Z" fill="#C4C4C4"/>
<rect x="0.30835" y="0.232178" width="21.8247" height="21.8247" stroke="#30363A" stroke-width="0.464355"/>
</svg>
