<svg width="42" height="40" viewBox="0 0 42 40" fill="none" xmlns="http://www.w3.org/2000/svg">
<path fill-rule="evenodd" clip-rule="evenodd" d="M4.66665 12.8333C3.37799 12.8333 2.33333 13.878 2.33333 15.1667V22.1666C2.33333 23.4553 3.37799 24.5 4.66665 24.5H9.33331V12.8333H4.66665ZM9.33331 26.8333H6.99998V36.1666C6.99998 36.8109 7.5223 37.3333 8.16664 37.3333C8.81099 37.3333 9.33331 36.8109 9.33331 36.1666V26.8333ZM4.66665 26.8333C2.08933 26.8333 0 24.7439 0 22.1666V15.1667C0 12.5894 2.08933 10.5 4.66665 10.5H10.5C11.1443 10.5 11.6666 11.0223 11.6666 11.6667V36.1666C11.6666 38.0996 10.0997 39.6666 8.16664 39.6666C6.2336 39.6666 4.66665 38.0996 4.66665 36.1666V26.8333Z" fill="white"/>
<path fill-rule="evenodd" clip-rule="evenodd" d="M28.5614 0.143956C28.9347 0.348869 29.1666 0.740856 29.1666 1.16666V12.8333C31.7439 12.8333 33.8333 14.9227 33.8333 17.5V18.6666C33.8333 21.2439 31.7439 23.3333 29.1666 23.3333V34.9999C29.1666 35.4257 28.9347 35.8177 28.5614 36.0226C28.1881 36.2275 27.7328 36.2128 27.3736 35.9842L14.5403 27.8176C14.2038 27.6034 14 27.2321 14 26.8333V9.33331C14 8.93443 14.2038 8.56319 14.5403 8.34899L27.3736 0.182398C27.7328 -0.0462098 28.1881 -0.0609447 28.5614 0.143956ZM29.1666 20.9999C30.4553 20.9999 31.5 19.9553 31.5 18.6666V17.5C31.5 16.2113 30.4553 15.1666 29.1666 15.1666V20.9999ZM16.3333 9.97369V26.1929L26.8333 32.8746V3.29194L16.3333 9.97369Z" fill="white"/>
<path fill-rule="evenodd" clip-rule="evenodd" d="M40.637 12.1861C40.9944 12.7222 40.8495 13.4466 40.3134 13.804L36.8134 16.1373C36.2773 16.4948 35.553 16.3499 35.1956 15.8138C34.8381 15.2777 34.983 14.5533 35.5191 14.1958L39.0191 11.8625C39.5552 11.5052 40.2796 11.6501 40.637 12.1861ZM34.9996 19.8333C34.9996 19.1889 35.5219 18.6666 36.1663 18.6666H40.8329C41.4773 18.6666 41.9996 19.1889 41.9996 19.8333C41.9996 20.4776 41.4773 20.9999 40.8329 20.9999H36.1663C35.5219 20.9999 34.9996 20.4776 34.9996 19.8333ZM35.1956 23.8528C35.553 23.3167 36.2773 23.1718 36.8134 23.5292L40.3134 25.8625C40.8495 26.2199 40.9944 26.9443 40.637 27.4804C40.2796 28.0165 39.5552 28.1614 39.0191 27.8039L35.5191 25.4706C34.983 25.1132 34.8381 24.3889 35.1956 23.8528Z" fill="white"/>
</svg>
