<svg width="53" height="38" viewBox="0 0 53 38" fill="none" xmlns="http://www.w3.org/2000/svg">
<path d="M13.6869 29.2307H7.36111C3.29568 29.2307 0 25.959 0 21.9231V7.30769C0 3.27176 3.29568 0 7.36111 0H27.9722C31.9719 0 35.2265 3.16678 35.3308 7.11245L41.8923 1.68418C44.7656 -0.69286 49.0359 -0.307467 51.4303 2.54498C52.4446 3.75321 53 5.27621 53 6.84898V22.3818C53 26.0948 49.968 29.1048 46.2278 29.1048C44.6435 29.1048 43.1094 28.5534 41.8923 27.5466L35.3308 22.1183C35.2265 26.064 31.9719 29.2307 27.9722 29.2307H21.6465L28.9303 35.4288C29.5477 35.9541 29.6192 36.8767 29.09 37.4896C28.5609 38.1025 27.6315 38.1734 27.0141 37.6481L17.6667 29.6942L8.31922 37.6481C7.70188 38.1734 6.77247 38.1025 6.24332 37.4896C5.71417 36.8767 5.78566 35.9541 6.403 35.4288L13.6869 29.2307ZM32.3889 19.0096C32.3888 19.0027 32.3888 18.9957 32.3889 18.9888V10.2419C32.3888 10.235 32.3888 10.2281 32.3889 10.2212V7.30769C32.3889 4.88613 30.4115 2.92307 27.9722 2.92307H7.36111C4.92185 2.92307 2.94444 4.88613 2.94444 7.30769V21.9231C2.94444 24.3446 4.92185 26.3077 7.36111 26.3077H27.9722C30.4115 26.3077 32.3889 24.3446 32.3889 21.9231V19.0096ZM35.3333 10.9153V18.3154L43.7773 25.301C44.4652 25.8701 45.3323 26.1818 46.2278 26.1818C48.3418 26.1818 50.0556 24.4804 50.0556 22.3818V6.84898C50.0556 5.96002 49.7416 5.0992 49.1684 4.41628C47.815 2.80403 45.4013 2.5862 43.7773 3.92974L35.3333 10.9153Z" fill="#545A61"/>
</svg>
