<svg width="45" height="41" viewBox="0 0 45 41" fill="none" xmlns="http://www.w3.org/2000/svg">
<path d="M6.1 38.9H38.9C41.1644 38.9 43 37.0644 43 34.8V13.48C43 11.2156 41.1644 9.38 38.9 9.38H32.75L27.625 2H17.375L12.25 9.38H6.1C3.83563 9.38 2 11.2156 2 13.48V34.8C2 37.0644 3.83563 38.9 6.1 38.9Z" stroke="#545A61" stroke-width="3" stroke-linecap="round" stroke-linejoin="round"/>
<path d="M22.5 30.6998C27.0288 30.6998 30.7 27.0285 30.7 22.4998C30.7 17.9711 27.0288 14.2998 22.5 14.2998C17.9713 14.2998 14.3 17.9711 14.3 22.4998C14.3 27.0285 17.9713 30.6998 22.5 30.6998Z" stroke="#545A61" stroke-width="3" stroke-linecap="round" stroke-linejoin="round"/>
</svg>
