<svg width="100" height="100" viewBox="0 0 100 100" fill="none" xmlns="http://www.w3.org/2000/svg">
<path d="M50 0L89.0916 18.8255L98.7464 61.126L71.6942 95.0484H28.3058L1.2536 61.126L10.9084 18.8255L50 0Z" fill="#05A6A8"/>
<path d="M38.3909 56.4265C38.6491 56.3528 38.9262 56.3887 39.157 56.526C41.0981 57.6803 43.3153 58.2983 45.6253 58.2983C52.6251 58.2983 58.2995 52.6239 58.2995 45.6241C58.2995 38.6243 52.6251 32.9499 45.6253 32.9499C38.6255 32.9499 32.9511 38.6243 32.9511 45.6241C32.9511 47.9341 33.5691 50.1513 34.7234 52.0924C34.8607 52.3232 34.8966 52.6003 34.8229 52.8585L33.3957 57.8537L38.3909 56.4265ZM59.6229 41.3762C65.7263 43.2249 69.9988 48.8771 69.9988 55.3735C69.9988 57.8914 69.3608 60.3179 68.1652 62.4686L69.9613 68.7548C70.1714 69.4903 69.4915 70.1702 68.756 69.9601L62.4698 68.164C60.3191 69.3596 57.8926 69.9976 55.3747 69.9976C48.8845 69.9976 43.2292 65.7325 41.3774 59.6215C40.3887 59.3219 39.435 58.9176 38.5302 58.4146L32.244 60.2107C31.5085 60.4208 30.8286 59.7409 31.0387 59.0054L32.8348 52.7192C31.6392 50.5685 31.0012 48.142 31.0012 45.6241C31.0012 37.5474 37.5486 31 45.6253 31C52.2246 31 57.803 35.3712 59.6229 41.3762V41.3762ZM60.1123 43.6135C60.2027 44.2708 60.2494 44.942 60.2494 45.6241C60.2494 53.7008 53.702 60.2482 45.6253 60.2482C44.9473 60.2482 44.2759 60.2019 43.6148 60.111C45.5165 64.8355 50.1315 68.0477 55.3747 68.0477C57.6847 68.0477 59.9019 67.4297 61.843 66.2754C62.0738 66.1381 62.3509 66.1022 62.6091 66.1759L67.6043 67.6031L66.1771 62.6079C66.1034 62.3497 66.1393 62.0726 66.2766 61.8418C67.4309 59.9007 68.0489 57.6835 68.0489 55.3735C68.0489 50.1257 64.8315 45.5129 60.1123 43.6135Z" fill="white"/>
</svg>
