<svg width="100" height="100" viewBox="0 0 100 100" fill="none" xmlns="http://www.w3.org/2000/svg">
<path d="M50 0L89.0916 18.8255L98.7464 61.126L71.6942 95.0484H28.3058L1.2536 61.126L10.9084 18.8255L50 0Z" fill="#2396B4"/>
<path d="M62.3945 58.6759L56.0399 55.7881C58.1906 54.1061 59.5729 51.4867 59.5729 48.5437C59.5729 43.4685 55.459 39.3528 50.3819 39.3528C45.3067 39.3528 41.191 43.4685 41.191 48.5437C41.191 51.4867 42.5733 54.1061 44.7258 55.7881L38.3712 58.6759C37.7664 58.9516 37.2352 59.3505 36.8087 59.8413C34.9356 57.1594 33.8382 53.8984 33.8382 50.3819C33.8382 41.2461 41.2461 33.8382 50.3819 33.8382C59.5196 33.8382 66.9257 41.2461 66.9257 50.3819C66.9257 53.8984 65.8283 57.1594 63.957 59.8413C63.5305 59.3505 62.9993 58.9516 62.3945 58.6759ZM43.0292 48.5437C43.0292 44.4832 46.3214 41.191 50.3819 41.191C54.4425 41.191 57.7347 44.4832 57.7347 48.5437C57.7347 52.6043 54.4425 55.8965 50.3819 55.8965C46.3214 55.8965 43.0292 52.6043 43.0292 48.5437ZM50.3819 66.9257C45.4427 66.9257 41.0108 64.7621 37.9778 61.3302C38.2609 60.9056 38.6579 60.5637 39.1322 60.3505L46.6357 56.9388C47.7791 57.4498 49.0474 57.7347 50.3819 57.7347C51.7165 57.7347 52.9848 57.4498 54.13 56.9388L61.6335 60.3505C62.1059 60.5637 62.503 60.9056 62.7861 61.3302C59.7549 64.7621 55.3212 66.9257 50.3819 66.9257ZM50.3819 32C40.2296 32 32 40.2296 32 50.3819C32 60.5343 40.2296 68.7639 50.3819 68.7639C60.5343 68.7639 68.7639 60.5343 68.7639 50.3819C68.7639 40.2296 60.5343 32 50.3819 32Z" fill="white"/>
</svg>
