<svg width="100" height="100" viewBox="0 0 100 100" fill="none" xmlns="http://www.w3.org/2000/svg">
<path d="M50 0L89.0916 18.8255L98.7464 61.126L71.6942 95.0484H28.3058L1.2536 61.126L10.9084 18.8255L50 0Z" fill="#487CA3"/>
<path fill-rule="evenodd" clip-rule="evenodd" d="M37.75 40.1136C37.75 41.2645 38.1305 42.3268 38.7727 43.1818H36.3864C35.7535 43.1818 35.1465 43.4332 34.6989 43.8808C34.2514 44.3283 34 44.9353 34 45.5682V48.9773C34 49.9291 34.5577 50.75 35.3636 51.1345V62.6136C35.3636 63.9309 36.4327 65 37.75 65H60.25C60.8829 65 61.4899 64.7486 61.9374 64.3011C62.3849 63.8535 62.6364 63.2465 62.6364 62.6136V51.1345C63.4423 50.7514 64 49.9291 64 48.9773V45.5682C64 44.9353 63.7486 44.3283 63.3011 43.8808C62.8535 43.4332 62.2465 43.1818 61.6136 43.1818H59.2273C59.7971 42.4221 60.1441 41.5187 60.2293 40.5729C60.3146 39.627 60.1348 38.6762 59.7101 37.8267C59.2854 36.9773 58.6326 36.263 57.8248 35.7637C57.0169 35.2644 56.086 35 55.1364 35C53.1509 35 50.4509 36.2286 49 39.2409C47.5491 36.2286 44.8477 35 42.8636 35C41.5074 35 40.2067 35.5388 39.2477 36.4977C38.2888 37.4567 37.75 38.7574 37.75 40.1136ZM47.9364 43.1818C47.545 38.4186 44.4318 37.0455 42.8636 37.0455C42.0499 37.0455 41.2695 37.3687 40.6941 37.9441C40.1187 38.5195 39.7955 39.2999 39.7955 40.1136C39.7955 40.9274 40.1187 41.7078 40.6941 42.2832C41.2695 42.8586 42.0499 43.1818 42.8636 43.1818H47.9364ZM60.5909 51.3636V62.6136C60.5909 62.7041 60.555 62.7908 60.4911 62.8547C60.4271 62.9186 60.3404 62.9545 60.25 62.9545H50.0227V51.3636H60.5909ZM47.9773 62.9545V51.3636H37.4091V62.6136C37.4091 62.8018 37.5618 62.9545 37.75 62.9545H47.9773ZM61.6136 49.3182C61.7041 49.3182 61.7908 49.2823 61.8547 49.2183C61.9186 49.1544 61.9545 49.0677 61.9545 48.9773V45.5682C61.9545 45.4778 61.9186 45.3911 61.8547 45.3271C61.7908 45.2632 61.7041 45.2273 61.6136 45.2273H50.0227V49.3182H61.6136ZM36.3864 49.3182H47.9773V45.2273H36.3864C36.2959 45.2273 36.2092 45.2632 36.1453 45.3271C36.0814 45.3911 36.0455 45.4778 36.0455 45.5682V48.9773C36.0455 49.1655 36.1982 49.3182 36.3864 49.3182ZM58.2045 40.1136C58.2045 40.9274 57.8813 41.7078 57.3059 42.2832C56.7305 42.8586 55.9501 43.1818 55.1364 43.1818H50.0636C50.455 38.4186 53.5682 37.0455 55.1364 37.0455C55.9501 37.0455 56.7305 37.3687 57.3059 37.9441C57.8813 38.5195 58.2045 39.2999 58.2045 40.1136Z" fill="white"/>
</svg>
