<svg width="100" height="100" viewBox="0 0 100 100" fill="none" xmlns="http://www.w3.org/2000/svg">
<path d="M50 0L89.0916 18.8255L98.7464 61.126L71.6942 95.0484H28.3058L1.2536 61.126L10.9084 18.8255L50 0Z" fill="#705DA8"/>
<path d="M44.2827 37.9047C44.2827 34.6436 46.9264 32 50.1874 32C53.4485 32 56.0921 34.6436 56.0921 37.9047C56.0921 41.1658 53.4485 43.8094 50.1874 43.8094C46.9264 43.8094 44.2827 41.1658 44.2827 37.9047ZM50.1874 34.9553C48.5585 34.9553 47.238 36.2758 47.238 37.9047C47.238 39.5336 48.5585 40.8541 50.1874 40.8541C51.8163 40.8541 53.1368 39.5336 53.1368 37.9047C53.1368 36.2758 51.8163 34.9553 50.1874 34.9553Z" fill="white"/>
<path d="M59.0525 39.3827C59.0525 36.9344 61.0373 34.9497 63.4854 34.9497C65.9336 34.9497 67.9184 36.9344 67.9184 39.3827C67.9184 41.8309 65.9336 43.8156 63.4854 43.8156C61.0373 43.8156 59.0525 41.8309 59.0525 39.3827ZM63.4854 37.905C62.6695 37.905 62.0078 38.5666 62.0078 39.3827C62.0078 40.1987 62.6695 40.8603 63.4854 40.8603C64.3014 40.8603 64.9631 40.1987 64.9631 39.3827C64.9631 38.5666 64.3014 37.905 63.4854 37.905Z" fill="white"/>
<path d="M36.888 34.9497C34.4398 34.9497 32.4551 36.9344 32.4551 39.3827C32.4551 41.8309 34.4398 43.8156 36.888 43.8156C39.3363 43.8156 41.321 41.8309 41.321 39.3827C41.321 36.9344 39.3363 34.9497 36.888 34.9497ZM35.4104 39.3827C35.4104 38.5666 36.072 37.905 36.888 37.905C37.7041 37.905 38.3657 38.5666 38.3657 39.3827C38.3657 40.1987 37.7041 40.8603 36.888 40.8603C36.072 40.8603 35.4104 40.1987 35.4104 39.3827Z" fill="white"/>
<path d="M39.1566 46.7695C38.6537 47.6389 38.3659 48.6483 38.3659 49.7248H32.4553V57.114C32.4553 59.5625 34.44 61.547 36.8883 61.547C37.5146 61.547 38.1106 61.4172 38.6508 61.1829C38.8698 62.1623 39.2103 63.0955 39.6557 63.9665C38.801 64.3119 37.8668 64.5023 36.8883 64.5023C32.8078 64.5023 29.5 61.1944 29.5 57.114V49.7248C29.5 48.0927 30.8231 46.7695 32.4553 46.7695H39.1566Z" fill="white"/>
<path d="M60.7183 63.9665C61.5729 64.3119 62.5071 64.5023 63.4856 64.5023C67.566 64.5023 70.8739 61.1944 70.8739 57.114V49.7248C70.8739 48.0927 69.5508 46.7695 67.9186 46.7695H61.2171C61.7201 47.6389 62.008 48.6483 62.008 49.7249L67.9186 49.7248V57.114C67.9186 59.5625 65.9338 61.547 63.4856 61.547C62.8594 61.547 62.2633 61.4172 61.7231 61.1829C61.5041 62.1623 61.1636 63.0955 60.7183 63.9665Z" fill="white"/>
<path d="M44.2771 46.7695C42.6449 46.7695 41.3218 48.0927 41.3218 49.7248V58.5917C41.3218 63.4883 45.2912 67.4576 50.1877 67.4576C55.0842 67.4576 59.0536 63.4883 59.0536 58.5917V49.7248C59.0536 48.0927 57.7305 46.7695 56.0983 46.7695H44.2771ZM44.2771 49.7248H56.0983V58.5917C56.0983 61.8561 53.452 64.5023 50.1877 64.5023C46.9233 64.5023 44.2771 61.8561 44.2771 58.5917V49.7248Z" fill="white"/>
</svg>
