<svg width="21" height="20" viewBox="0 0 21 20" fill="none" xmlns="http://www.w3.org/2000/svg">
<path d="M10.9766 0.278076C5.45156 0.278076 0.976564 4.75308 0.976564 10.2781C0.97543 12.3774 1.63538 14.4237 2.86278 16.1268C4.09018 17.8298 5.82271 19.1031 7.81456 19.7661C8.31456 19.8531 8.50156 19.5531 8.50156 19.2901C8.50156 19.0531 8.48856 18.2661 8.48856 17.4281C5.97656 17.8911 5.32656 16.8161 5.12656 16.2531C5.01356 15.9651 4.52656 15.0781 4.10156 14.8401C3.75156 14.6531 3.25156 14.1901 4.08856 14.1781C4.87656 14.1651 5.43856 14.9031 5.62656 15.2031C6.52656 16.7151 7.96456 16.2901 8.53856 16.0281C8.62656 15.3781 8.88856 14.9411 9.17656 14.6911C6.95156 14.4411 4.62656 13.5781 4.62656 9.75308C4.62656 8.66508 5.01356 7.76608 5.65156 7.06508C5.55156 6.81508 5.20156 5.79008 5.75156 4.41508C5.75156 4.41508 6.58856 4.15308 8.50156 5.44108C9.31563 5.21514 10.1567 5.10142 11.0016 5.10308C11.8516 5.10308 12.7016 5.21508 13.5016 5.44008C15.4136 4.14008 16.2516 4.41608 16.2516 4.41608C16.8016 5.79108 16.4516 6.81608 16.3516 7.06608C16.9886 7.76608 17.3766 8.65308 17.3766 9.75308C17.3766 13.5911 15.0396 14.4411 12.8146 14.6911C13.1766 15.0031 13.4896 15.6031 13.4896 16.5411C13.4896 17.8781 13.4766 18.9531 13.4766 19.2911C13.4766 19.5531 13.6646 19.8651 14.1646 19.7651C16.1496 19.0949 17.8745 17.8191 19.0965 16.1172C20.3184 14.4154 20.976 12.3732 20.9766 10.2781C20.9766 4.75308 16.5016 0.278076 10.9766 0.278076Z" fill="#607B96"/>
</svg>
