<svg width="42" height="42" viewBox="0 0 42 42" fill="none" xmlns="http://www.w3.org/2000/svg">
<g clip-path="url(#clip0_88_177)">
<path opacity="0.72" d="M41.9328 19.2696C41.9122 19.0601 41.8152 18.8655 41.6603 18.723C41.5054 18.5805 41.3033 18.4999 41.0928 18.4968H20.1601C19.5916 18.5107 19.0367 18.6731 18.5504 18.9678C18.0642 19.2625 17.6634 19.6793 17.3881 20.1768C17.1331 20.6218 16.999 21.1256 16.999 21.6384C16.999 22.1512 17.1331 22.6551 17.3881 23.1C17.4608 23.2399 17.5688 23.3585 17.7014 23.4439C17.834 23.5293 17.9865 23.5787 18.144 23.5872H41.1433C41.3538 23.5841 41.5558 23.5036 41.7107 23.3611C41.8657 23.2185 41.9627 23.0239 41.9833 22.8144C41.9833 22.1592 41.9833 21.6048 41.9833 21.1344C41.9833 20.664 41.9832 19.908 41.9328 19.2696Z" fill="#3056D3"/>
<path d="M41.9161 19.2696C41.8994 19.0616 41.806 18.8671 41.6538 18.7243C41.5016 18.5814 41.3016 18.5003 41.0929 18.4968H37.7329C37.6151 18.4982 37.4987 18.5243 37.3917 18.5735C37.2846 18.6227 37.1891 18.6939 37.1113 18.7824C37.033 18.8676 36.9743 18.9689 36.9395 19.0792C36.9046 19.1895 36.8945 19.3061 36.9097 19.4208C36.9097 19.9584 36.9097 20.496 36.9097 21.1008C36.9055 23.7816 36.2261 26.4181 34.9342 28.7671C33.6423 31.116 31.7794 33.1017 29.5177 34.5408C29.2825 34.692 29.0642 34.8768 28.8122 35.0112C27.5794 35.7133 26.2568 36.2445 24.8809 36.5904L27.0818 40.5048C27.1565 40.6343 27.2644 40.7414 27.3943 40.8152C27.5242 40.8891 27.6714 40.9269 27.8209 40.9248C27.9097 40.9409 28.0008 40.9409 28.0897 40.9248L28.6272 40.7064L29.1145 40.5048C29.8576 40.1962 30.5814 39.8427 31.2818 39.4464V39.4464C34.5573 37.6013 37.2788 34.9127 39.1637 31.6599C41.0486 28.4072 42.028 24.7089 42.0002 20.9496C42.0002 20.328 41.9665 19.8408 41.9161 19.2696Z" fill="#3056D3"/>
<path d="M30.0246 35.2156C29.9117 35.0239 29.7322 34.8804 29.5205 34.8124H29.2853C29.1394 34.8136 28.9958 34.848 28.8653 34.9132C26.4697 36.2763 23.7592 36.9887 21.003 36.9796C16.7729 36.9707 12.7185 35.2864 9.72738 32.2952C6.73622 29.304 5.05187 25.2497 5.04299 21.0196C5.05187 16.7895 6.73622 12.7351 9.72738 9.74396C12.7185 6.7528 16.7729 5.06846 21.003 5.05958C23.7579 5.06046 26.4659 5.7722 28.8653 7.12597C28.9907 7.20558 29.1368 7.24648 29.2853 7.24357H29.47C29.5852 7.21815 29.694 7.16922 29.7894 7.09984C29.8848 7.03046 29.9649 6.94213 30.0246 6.84038L31.7046 3.91718C31.8156 3.72276 31.8462 3.49259 31.7897 3.27594C31.7332 3.05929 31.594 2.87337 31.4021 2.75798C28.2398 0.97099 24.6689 0.0333629 21.0366 0.0363842C15.4698 0.0452698 10.1335 2.26062 6.19717 6.19696C2.26083 10.1333 0.0455067 15.4696 0.0366211 21.0364C0.0455067 26.6032 2.26083 31.9395 6.19717 35.8758C10.1335 39.8121 15.4698 42.0275 21.0366 42.0364C24.6689 42.0394 28.2398 41.1018 31.4021 39.3148C31.4982 39.2608 31.5825 39.1881 31.65 39.101C31.7175 39.0139 31.7668 38.9141 31.795 38.8076C31.8232 38.701 31.8298 38.5899 31.8143 38.4808C31.7987 38.3717 31.7614 38.2668 31.7046 38.1724L30.0246 35.2156Z" fill="#3056D3"/>
<path opacity="0.56" d="M23.4024 23.52H18.0938C17.9432 23.5092 17.7973 23.4624 17.6687 23.3835C17.54 23.3045 17.4323 23.1958 17.3545 23.0664V23.0664L27.1154 40.3536C27.1901 40.483 27.298 40.5902 27.4279 40.664C27.5579 40.7379 27.7051 40.7757 27.8545 40.7736C27.949 40.7896 28.0456 40.7896 28.1402 40.7736C29.2503 40.3739 30.3239 39.8793 31.349 39.2952C31.4451 39.2413 31.5293 39.1686 31.5968 39.0814C31.6642 38.9943 31.7135 38.8945 31.7417 38.788C31.7699 38.6814 31.7766 38.5703 31.761 38.4612C31.7455 38.3521 31.7081 38.2472 31.6513 38.1528L23.4024 23.52Z" fill="#3056D3"/>
</g>
<defs>
<clipPath id="clip0_88_177">
<rect width="42" height="42" fill="white"/>
</clipPath>
</defs>
</svg>
