<svg width="9" height="16" viewBox="0 0 9 16" fill="none" xmlns="http://www.w3.org/2000/svg">
<path fill-rule="evenodd" clip-rule="evenodd" d="M2.69744 8.00248L8.75619 1.55904L8.76362 1.55038C9.07234 1.1902 9.07406 0.627907 8.71337 0.26721C8.54613 0.0999709 8.2976 1.01508e-06 8.07 1.03498e-06C7.78469 1.05992e-06 7.56759 0.126252 7.40226 0.29158L7.39653 0.297305L1.25094 6.85748L1.25021 6.85826C0.651297 7.49324 0.663968 8.51608 1.2419 9.162L1.24599 9.16657L7.39686 15.708L7.40226 15.7134C7.72894 16.0401 8.31328 16.1378 8.71337 15.7377C9.03833 15.4128 9.13679 14.8329 8.74403 14.433L2.69744 8.00248Z" fill="white"/>
</svg>
