<svg width="44" height="44" viewBox="0 0 44 44" fill="none" xmlns="http://www.w3.org/2000/svg">
<circle cx="22" cy="22" r="21.5" fill="white" stroke="#E7E7E7"/>
<path d="M22.5512 22.0026L28.5405 15.9986C28.6919 15.8475 28.6919 15.6099 28.5405 15.4587C28.3891 15.3075 28.1513 15.3075 28 15.4587L22.0107 21.4627L15.9998 15.4803C15.8484 15.3291 15.6106 15.3291 15.4592 15.4803C15.3079 15.6315 15.3079 15.8691 15.4592 16.0202L21.4701 22.0026L15.4808 28.0065C15.3295 28.1577 15.3295 28.3953 15.4808 28.5465C15.5457 28.6113 15.6538 28.6544 15.7403 28.6544C15.8268 28.6544 15.9349 28.6113 15.9998 28.5465L22.0107 22.5425L28 28.5465C28.0648 28.6113 28.1729 28.6544 28.2594 28.6544C28.3459 28.6544 28.454 28.6113 28.5189 28.5465C28.6702 28.3953 28.6702 28.1577 28.5189 28.0065L22.5512 22.0026Z" fill="#637381"/>
<path fill-rule="evenodd" clip-rule="evenodd" d="M28 15.4587C28.1513 15.3075 28.3891 15.3075 28.5405 15.4587C28.6919 15.6099 28.6919 15.8475 28.5405 15.9986L22.5512 22.0026L28.5189 28.0065C28.6702 28.1577 28.6702 28.3953 28.5189 28.5465C28.454 28.6113 28.3459 28.6544 28.2594 28.6544C28.1729 28.6544 28.0648 28.6113 28 28.5465L22.0107 22.5425L15.9998 28.5465C15.9349 28.6113 15.8268 28.6544 15.7403 28.6544C15.6538 28.6544 15.5457 28.6113 15.4808 28.5465C15.3295 28.3953 15.3295 28.1577 15.4808 28.0065L21.4701 22.0026L15.4592 16.0202C15.3079 15.8691 15.3079 15.6315 15.4592 15.4803C15.6106 15.3291 15.8484 15.3291 15.9998 15.4803L22.0107 21.4627L28 15.4587ZM22.0098 20.974L27.7549 15.2148C28.0414 14.9287 28.4987 14.9282 28.7852 15.2144C29.0715 15.5004 29.0716 15.9564 28.7856 16.2425M28.7856 16.2425L23.0392 22.003L28.7635 27.7622C28.7637 27.7623 28.7634 27.7621 28.7635 27.7622C29.0496 28.0483 29.0499 28.5048 28.7635 28.7908C28.6331 28.9211 28.4366 29 28.2594 29C28.0823 29 27.8858 28.9211 27.7554 28.7908L22.0103 23.0316L16.2444 28.7908C16.1139 28.9211 15.9175 29 15.7403 29C15.5631 29 15.3667 28.9211 15.2362 28.7908C14.9498 28.5047 14.9498 28.0483 15.2362 27.7622L20.9809 22.0035L15.2151 16.265C14.9286 15.9789 14.9282 15.5221 15.2146 15.236C15.501 14.9499 15.9577 14.9498 16.2441 15.2357C16.2442 15.2358 16.2441 15.2356 16.2441 15.2357L22.0098 20.974" fill="#637381"/>
</svg>
