<svg width="20" height="20" viewBox="0 0 20 20" fill="none" xmlns="http://www.w3.org/2000/svg">
<g clip-path="url(#clip0_121_52590)">
<path d="M9.59375 19.2188C4.28125 19.2188 0 14.9063 0 9.59375C0 4.28125 4.28125 0 9.59375 0C14.9063 0 19.2188 4.28125 19.2188 9.59375C19.2188 14.9063 14.9063 19.2188 9.59375 19.2188ZM9.59375 1.09375C4.90625 1.09375 1.09375 4.90625 1.09375 9.59375C1.09375 14.2813 4.90625 18.125 9.59375 18.125C14.2813 18.125 18.125 14.2813 18.125 9.59375C18.125 4.90625 14.2813 1.09375 9.59375 1.09375Z" fill="#13C296"/>
<path d="M8.82031 12.1953C8.60156 12.1953 8.41406 12.1328 8.22656 11.9766L6.16406 9.97656C5.94531 9.75781 5.94531 9.41406 6.16406 9.19531C6.38281 8.97656 6.72656 8.97656 6.94531 9.19531L8.82031 11.0391L12.8203 7.16406C13.0391 6.94531 13.3828 6.94531 13.6016 7.16406C13.8203 7.38281 13.8203 7.72656 13.6016 7.94531L9.44531 12.0078C9.22656 12.1328 9.00781 12.1953 8.82031 12.1953Z" fill="#13C296"/>
</g>
<defs>
<clipPath id="clip0_121_52590">
<rect width="20" height="20" fill="white"/>
</clipPath>
</defs>
</svg>
