<svg width="16" height="10" viewBox="0 0 16 10" fill="none" xmlns="http://www.w3.org/2000/svg">
<path d="M15.1919 0.705715C15.0247 0.549841 14.7619 0.549841 14.5947 0.705715L5.87425 8.58844C5.80258 8.65524 5.70701 8.65524 5.63534 8.58844L1.31097 4.66934C1.14373 4.51347 0.88092 4.51347 0.713679 4.66934C0.546439 4.82522 0.546439 5.07016 0.713679 5.22603L5.03805 9.14513C5.22918 9.32327 5.49199 9.41234 5.7309 9.41234C5.99371 9.41234 6.23262 9.32327 6.42376 9.14513L15.1442 1.2624C15.3353 1.10653 15.3353 0.861588 15.1919 0.705715Z" fill="white"/>
<path fill-rule="evenodd" clip-rule="evenodd" d="M15.6096 0.290276L15.6249 0.306953C15.9845 0.697969 15.9802 1.32653 15.5297 1.70632L6.82119 9.57824C6.51573 9.86122 6.13253 10 5.73091 10C5.36023 10 4.95097 9.86572 4.64036 9.57799L0.312583 5.65581C-0.10422 5.26734 -0.104181 4.62693 0.312622 4.23846C0.704577 3.87314 1.31512 3.87202 1.70841 4.2351L5.75516 7.90258L14.1976 0.271137C14.5909 -0.091605 15.2012 -0.0903748 15.593 0.274828L15.6096 0.290276ZM1.31097 4.66934C1.14373 4.51347 0.88092 4.51347 0.713679 4.66934C0.546439 4.82522 0.546439 5.07016 0.713679 5.22603L5.03805 9.14513C5.22918 9.32327 5.49199 9.41234 5.7309 9.41234C5.99371 9.41234 6.23262 9.32327 6.42376 9.14513L15.1442 1.2624C15.3353 1.10653 15.3353 0.861588 15.1919 0.705715C15.0247 0.549841 14.7619 0.549841 14.5947 0.705715L5.87425 8.58844C5.80258 8.65524 5.70701 8.65524 5.63534 8.58844L1.31097 4.66934Z" fill="white"/>
</svg>
