<svg width="40" height="41" viewBox="0 0 40 41" fill="none" xmlns="http://www.w3.org/2000/svg">
<path d="M39.7704 26.0341C40.3038 27.2845 39.9077 28.8574 38.5834 29.6293L21.4368 39.6235C20.5488 40.1411 19.4511 40.1411 18.5631 39.6235L1.41658 29.6293C0.0921773 28.8574 -0.303835 27.2845 0.229717 26.0341L18.6008 36.3707C19.4696 36.8595 20.5306 36.8595 21.3992 36.3707L39.7704 26.0341ZM39.7704 19.0345C40.3038 20.2851 39.9077 21.858 38.5834 22.6299L21.4368 32.6238C20.5488 33.1414 19.4511 33.1414 18.5631 32.6238L1.41658 22.6299C0.0921773 21.858 -0.303835 20.2851 0.229717 19.0345L18.6008 29.3713C19.4696 29.8601 20.5306 29.8601 21.3992 29.3713L39.7704 19.0345ZM21.4423 0.391261L38.5888 10.4341C40.4727 11.5377 40.4698 14.2622 38.5834 15.3617L21.4368 25.3556C20.5488 25.8732 19.4511 25.8732 18.5631 25.3556L1.41658 15.3617C-0.469881 14.2622 -0.472763 11.5377 1.41136 10.4341L18.5578 0.391261C19.4485 -0.13042 20.5514 -0.13042 21.4423 0.391261V0.391261ZM18.5578 3.69821L2.85353 12.8964L18.5631 22.0529C19.4511 22.5705 20.5488 22.5705 21.4368 22.0529L37.1466 12.8964L21.4423 3.69821C20.5514 3.17653 19.4485 3.17653 18.5578 3.69821V3.69821Z" fill="#545A61"/>
</svg>
