<svg width="23" height="21" viewBox="0 0 23 21" fill="none" xmlns="http://www.w3.org/2000/svg">
<path d="M17.7612 9.24166L17.3836 8.42204L17.3837 8.422L17.7612 9.24163L17.7612 9.24166ZM6.46812 9.87107C6.20944 9.75189 5.90324 9.86503 5.78403 10.1237L3.26709 15.588C3.14796 15.8467 3.26105 16.1529 3.51977 16.2721C3.58961 16.3043 3.66299 16.3195 3.7352 16.3195C3.93025 16.3195 4.11691 16.2082 4.20386 16.0194L6.72084 10.5552C6.83986 10.2965 6.72687 9.9902 6.46812 9.87107ZM21.9504 15.6139L21.8528 15.6588L21.8797 15.7174C22.0814 16.1552 22.1004 16.6454 21.9334 17.0977C21.7664 17.5499 21.4333 17.91 20.9954 18.1117L16.585 20.1432C16.3461 20.2533 16.0923 20.3091 15.8308 20.3091C15.8307 20.3091 15.8307 20.3091 15.8307 20.3091C15.1283 20.309 14.4845 19.8969 14.1907 19.259L11.4928 13.4017L8.80932 19.2277C8.51545 19.8656 7.87165 20.2777 7.16917 20.2777C6.9076 20.2777 6.6538 20.2219 6.41493 20.1119L2.00457 18.0803C1.5667 17.8786 1.23353 17.5186 1.06653 17.0663C0.899526 16.6141 0.918619 16.124 1.12028 15.686L1.14721 15.6275L1.04968 15.5826C0.145773 15.1663 -0.250871 14.0922 0.165429 13.1882L2.24176 8.68027C2.44338 8.24233 2.80349 7.90922 3.25584 7.74222C3.70807 7.57515 4.1982 7.59432 4.63614 7.79598L4.73378 7.84095L4.89557 7.4897L5.30707 6.59573C5.735 5.66691 6.83881 5.25939 7.76736 5.6872C7.77663 5.69144 7.78574 5.69576 7.79493 5.70018C8.44835 5.32316 9.24284 5.28186 9.9446 5.60517C10.5556 5.88654 11.0052 6.40341 11.2016 7.03033C11.3187 7.05153 11.4344 7.08281 11.5481 7.12209C11.6306 7.09759 11.714 7.07692 11.7981 7.06169C11.9946 6.43473 12.4442 5.9179 13.0551 5.63652C13.757 5.31321 14.5513 5.35459 15.2048 5.73162C15.214 5.72723 15.2232 5.72291 15.2323 5.71864C15.6822 5.51135 16.1858 5.49169 16.6506 5.66331C17.1152 5.83492 17.4853 6.17718 17.6926 6.62712L18.1043 7.52083C18.1043 7.52094 18.1044 7.52102 18.1044 7.52109L18.2661 7.87216L18.3636 7.82726C18.8015 7.62556 19.2918 7.60655 19.744 7.77351C20.1963 7.94051 20.5564 8.27365 20.7581 8.71155L22.8345 13.2196C23.2509 14.1235 22.8542 15.1976 21.9504 15.6139ZM13.6895 8.16021C13.527 8.39421 13.2056 8.45216 12.9718 8.28981C12.9288 8.25995 12.8839 8.23381 12.8382 8.20958C12.8933 8.31037 12.9413 8.41581 12.9818 8.52557C13.0685 8.76047 13.116 9.00328 13.1258 9.24639L16.9518 7.48403L16.7559 7.05869C16.6639 6.85894 16.4996 6.70699 16.2934 6.63084C16.0871 6.55465 15.8635 6.56343 15.6639 6.65537C15.6094 6.6805 15.5583 6.71115 15.5117 6.74649C15.4222 6.81832 15.3091 6.85999 15.1889 6.85999C15.0661 6.85999 14.9509 6.81656 14.8605 6.74202C14.4688 6.4279 13.9429 6.36319 13.4867 6.57333C13.2297 6.69161 13.0237 6.88438 12.8902 7.12167C13.1262 7.19159 13.3527 7.29888 13.5598 7.44262C13.7938 7.60501 13.8519 7.92633 13.6895 8.16021ZM1.57871 14.6908L4.30244 8.77769L4.2048 8.73271C3.8175 8.55434 3.35712 8.72427 3.17864 9.11165L1.1022 13.6197C0.923721 14.0071 1.09372 14.4674 1.4811 14.6458L1.57871 14.6908ZM11.432 11.0682L10.9176 10.8312L10.8837 10.8469L10.8654 10.8072L10.4285 10.606L10.1448 10.4753L5.61661 8.38956H5.61654L5.42782 8.79929V9.25059H5.42774V8.79944L5.23902 9.20918L2.51548 15.1222L2.3963 15.3809L2.08398 16.059L2.05698 16.1176C1.97055 16.3052 1.96233 16.5153 2.03391 16.7092C2.10548 16.9029 2.24832 17.0573 2.43592 17.1437L6.84639 19.1752C6.94905 19.2225 7.05769 19.2465 7.16917 19.2465C7.4705 19.2465 7.74658 19.0697 7.87258 18.7963L10.925 12.1692L11.2089 11.5529L11.3772 11.1874L11.432 11.0682ZM12.0288 9.75171C12.1228 9.46943 12.119 9.16604 12.0144 8.88291C11.9187 8.62385 11.7475 8.40726 11.524 8.25459C11.463 8.21295 11.3989 8.17503 11.3304 8.14352C11.2129 8.08943 11.0893 8.05451 10.964 8.03706C10.7092 8.00154 10.4473 8.041 10.213 8.15237C10.1491 8.18268 10.0872 8.21764 10.0282 8.2586C9.79421 8.42092 9.47297 8.36304 9.31054 8.12908C9.14819 7.89516 9.20619 7.57384 9.44014 7.41145C9.64724 7.26771 9.8737 7.16042 10.1097 7.0905C9.97629 6.85317 9.77021 6.66047 9.51329 6.54212C9.05704 6.33206 8.53139 6.39673 8.13955 6.71066C8.10984 6.73519 8.07702 6.75661 8.04176 6.77428C7.8569 6.86667 7.64069 6.8382 7.48734 6.71468C7.44083 6.67942 7.38993 6.64907 7.33598 6.62424C6.92381 6.43424 6.43384 6.61523 6.24384 7.02748L6.04796 7.4529L9.87708 9.21664L10.3903 9.453L10.95 9.71078L11.5339 9.97974L12.0288 9.75171ZM20.943 16.149L20.916 16.0903L20.9159 16.0903L20.9159 16.0903L20.8015 15.8417L17.7609 9.2405L17.3834 8.42084L17.3832 8.42092L12.8185 10.5235L12.5846 11.0313L12.0605 12.1692L15.1275 18.8276C15.2534 19.1011 15.5295 19.2778 15.8308 19.2778C15.8308 19.2778 15.8308 19.2778 15.8308 19.2778C15.9424 19.2778 16.0509 19.2539 16.1536 19.2066L20.564 17.175C20.7516 17.0886 20.8945 16.9343 20.966 16.7404C21.0376 16.5465 21.0294 16.3366 20.943 16.149ZM21.8978 13.651L19.8213 9.14297C19.6429 8.75559 19.1824 8.58574 18.7952 8.76403L18.6976 8.80893L21.4212 14.7221L21.5189 14.6772C21.9063 14.4988 22.0762 14.0385 21.8978 13.651ZM15.5737 10.9116C15.4544 10.6529 15.1483 10.5397 14.8896 10.6589C14.6309 10.7781 14.5178 11.0843 14.6369 11.343L17.1539 16.8073C17.2409 16.9961 17.4275 17.1073 17.6226 17.1073C17.6948 17.1073 17.7681 17.0921 17.838 17.0599C18.0967 16.9408 18.2098 16.6345 18.0907 16.3758L15.5737 10.9116ZM17.2159 10.1551C17.0968 9.89639 16.7904 9.78325 16.5318 9.90243C16.2731 10.0216 16.16 10.3278 16.2792 10.5865L18.7961 16.0508C18.8831 16.2396 19.0698 16.3509 19.2649 16.3509C19.3371 16.3509 19.4104 16.3356 19.4803 16.3034C19.7391 16.1843 19.8521 15.878 19.733 15.6193L17.2159 10.1551ZM13.9314 11.6679C13.8121 11.4092 13.5059 11.2961 13.2473 11.4153C12.9885 11.5344 12.8755 11.8407 12.9946 12.0994L15.5116 17.5636C15.5986 17.7524 15.7852 17.8637 15.9802 17.8637C16.0525 17.8637 16.1258 17.8485 16.1957 17.8163C16.4544 17.6971 16.5675 17.3909 16.4483 17.1322L13.9314 11.6679ZM8.11033 10.6276C7.85165 10.5085 7.54545 10.6216 7.42624 10.8803L4.90934 16.3446C4.7902 16.6033 4.9033 16.9096 5.16201 17.0287C5.23186 17.0609 5.30523 17.0761 5.37744 17.0761C5.5725 17.0761 5.75916 16.9649 5.84611 16.7761L8.36301 11.3118C8.48214 11.053 8.36905 10.7467 8.11033 10.6276ZM9.75265 11.384C9.49405 11.2648 9.18769 11.378 9.06856 11.6367L6.55166 17.1009C6.43252 17.3596 6.54562 17.6659 6.80434 17.785C6.87418 17.8173 6.94755 17.8324 7.01976 17.8324C7.21482 17.8324 7.40148 17.7212 7.48843 17.5324L10.0053 12.0681C10.1245 11.8095 10.0114 11.5031 9.75265 11.384ZM11.5167 5.10784C11.8015 5.10784 12.0324 4.87692 12.0324 4.59217V1.20659C12.0324 0.921763 11.8015 0.690918 11.5167 0.690918C11.232 0.690918 11.0011 0.921763 11.0011 1.20659V4.59217C11.0011 4.877 11.2319 5.10784 11.5167 5.10784ZM13.4765 4.62151C13.5483 4.65579 13.624 4.67211 13.6986 4.67211C13.8909 4.67211 14.0757 4.56396 14.1641 4.37881L15.0942 2.43399C15.2171 2.17708 15.1085 1.86915 14.8515 1.7463C14.5946 1.62345 14.2866 1.73205 14.1639 1.98904L13.2338 3.93385C13.111 4.19073 13.2196 4.49866 13.4765 4.62151ZM8.76183 4.37877C8.85039 4.56396 9.03495 4.67207 9.22738 4.67207C9.30195 4.67207 9.37773 4.65575 9.44948 4.62147C9.70636 4.49862 9.81503 4.19069 9.69215 3.93385L8.76198 1.98904C8.63913 1.73208 8.33146 1.62349 8.07428 1.74634C7.8174 1.86919 7.70873 2.17712 7.83158 2.43396L8.76183 4.37877Z" fill="white"/>
</svg>
