<svg width="21" height="23" viewBox="0 0 21 23" fill="none" xmlns="http://www.w3.org/2000/svg">
<path d="M20.582 8.75662L18.8967 2.51829C18.8449 2.32771 18.7651 2.14773 18.669 1.97825C18.8117 1.77416 18.8967 1.52688 18.8967 1.25902C18.8967 0.56353 18.3327 0 17.6377 0H3.21519C2.51981 0 1.95649 0.56379 1.95649 1.25902C1.95649 1.60697 2.09723 1.92176 2.32585 2.14986C2.23199 2.31607 2.1544 2.49309 2.10383 2.67982L0.418747 8.91815C0.190643 9.76274 0.522015 10.4756 1.17125 10.6454V22.9999H19.935V10.4428C20.5106 10.2247 20.7964 9.5522 20.582 8.75662ZM15.1766 3.56365L16.6005 8.83442C16.6224 8.91648 16.6551 8.99512 16.6864 9.07401C16.0505 10.1152 15.1265 10.5673 14.1198 10.3169C13.236 10.0976 12.6193 9.41941 12.606 8.93836V3.80657C12.606 3.72352 12.5934 3.64343 12.5812 3.5637L15.1766 3.56365ZM4.40025 8.99621L5.86762 3.56365H8.33841C8.32589 3.64343 8.31367 3.72346 8.31367 3.80652V9.03477L8.3105 9.03321C7.72301 10.1445 6.81496 10.6404 5.82038 10.3933C4.99595 10.1889 4.4212 9.55225 4.4212 9.1093H4.35919C4.37234 9.07115 4.3897 9.03503 4.40025 8.99621ZM14.6306 21.7176H4.50742V17.6685H6.32409C6.4982 17.2756 6.89012 17.0007 7.34788 17.0007C7.80492 17.0007 8.19736 17.2756 8.37116 17.6685H12.0685C12.1205 17.098 12.5948 16.6498 13.179 16.6498C13.7626 16.6498 14.2372 17.098 14.2889 17.6685H14.6307V21.7176H14.6306ZM6.5918 16.2108C6.5918 15.775 6.94557 15.4214 7.38151 15.4214C7.81745 15.4214 8.17091 15.7751 8.17091 16.2108C8.17091 16.6471 7.81745 17.0007 7.38151 17.0007C6.94557 17.0007 6.5918 16.6471 6.5918 16.2108ZM12.4228 15.8599C12.4228 15.4241 12.7763 15.0704 13.2122 15.0704C13.6483 15.0704 14.0018 15.4242 14.0018 15.8599C14.0018 16.2961 13.6482 16.6498 13.2122 16.6498C12.7763 16.6498 12.4228 16.2961 12.4228 15.8599ZM18.9633 22.0282H17.7216V13.8356H3.46835V22.0282H2.14307V10.6984L2.42834 10.7039C3.10345 10.7176 3.80762 10.2103 4.18899 9.50527C4.40685 10.0324 5.01721 10.5281 5.74289 10.7082C5.88457 10.7432 6.08247 10.7776 6.31458 10.7776C6.88643 10.7776 7.66481 10.5673 8.31607 9.64534C8.32833 10.524 9.04637 10.9197 9.93343 10.9197H10.9862C11.7512 10.9197 12.3879 10.3878 12.558 9.6748C12.8713 10.1058 13.4185 10.477 14.0422 10.6315C14.1938 10.6693 14.4062 10.706 14.6545 10.706C15.2827 10.706 16.1427 10.4681 16.8515 9.41619C17.2404 10.0831 17.9201 10.5549 18.5722 10.5422L18.9633 10.5346V22.0282Z" fill="white"/>
</svg>
