<svg width="23" height="17" viewBox="0 0 23 17" fill="none" xmlns="http://www.w3.org/2000/svg">
<path d="M15.3132 1.86108V1.60969C15.3132 1.2434 15.016 0.946228 14.6497 0.946228H1.54719C1.1809 0.946228 0.883728 1.2434 0.883728 1.60969V13.6211C0.883728 13.9874 1.1809 14.2846 1.54719 14.2846H4.28472C4.57564 15.3024 5.50377 16.0538 6.61386 16.0538C7.72395 16.0538 8.65208 15.3024 8.94299 14.2846H14.6497H15.7614C16.0523 15.3024 16.9804 16.0538 18.0905 16.0538C19.2006 16.0538 20.1288 15.3024 20.4197 14.2846H21.299C21.3263 14.2846 21.3495 14.2722 21.3759 14.269C21.4023 14.2722 21.4255 14.2846 21.4528 14.2846C21.819 14.2846 22.1162 13.9874 22.1162 13.6211V8.54364C22.1162 5.04368 19.1202 2.16441 15.3132 1.86108ZM20.7638 8.10133H18.2719C17.6361 7.92726 17.5074 6.78866 17.5074 5.01554V3.78068C19.3156 4.61897 20.5887 6.22493 20.7638 8.10133ZM16.6228 3.44835V5.01554C16.6228 6.93855 16.7377 8.68834 18.1303 8.97688C18.1596 8.98292 18.1899 8.98595 18.2201 8.98595H20.7893V12.9576H20.4197C20.1288 11.9398 19.2006 11.1884 18.0905 11.1884C16.9804 11.1884 16.0523 11.9398 15.7614 12.9576H14.6497H8.94299C8.84456 12.6133 8.67449 12.3023 8.44626 12.0385H14.6497C14.8278 12.0385 14.979 11.9321 15.0491 11.7805C15.2058 11.6591 15.3132 11.4778 15.3132 11.2644V3.19054C15.7669 3.23352 16.204 3.32315 16.6228 3.44835ZM13.9862 11.1539H2.21065V2.27315H13.9862V11.1539ZM2.21065 12.0385H4.78146C4.55323 12.3023 4.38315 12.6133 4.28472 12.9576H2.21065V12.0385ZM6.61386 14.7269C6.00396 14.7269 5.50809 14.231 5.50809 13.6211C5.50809 13.0112 6.00396 12.5153 6.61386 12.5153C7.223 12.5153 7.71801 13.0101 7.7192 13.6189C7.7192 13.6197 7.71876 13.6204 7.71876 13.6211C7.71876 13.6219 7.7192 13.6225 7.7192 13.6233C7.71801 14.2321 7.223 14.7269 6.61386 14.7269ZM18.0905 14.7269C17.4806 14.7269 16.9848 14.231 16.9848 13.6211C16.9848 13.0112 17.4806 12.5153 18.0905 12.5153C18.7004 12.5153 19.1963 13.0112 19.1963 13.6211C19.1963 14.231 18.7004 14.7269 18.0905 14.7269Z" fill="white"/>
</svg>
