<svg width="23" height="21" viewBox="0 0 23 21" fill="none" xmlns="http://www.w3.org/2000/svg">
<path d="M6.27035 1.67098H0.722493V5.9292H6.27222L6.27035 1.67098ZM6.94417 0.948486H22.2756C22.3636 0.948486 22.4478 0.965332 22.5246 0.999023C22.6032 1.03271 22.6762 1.08138 22.7361 1.14128L22.7398 1.14502C22.7997 1.20492 22.8484 1.27791 22.8802 1.35653C22.912 1.43327 22.9307 1.5175 22.9307 1.60547V5.99845C22.9307 6.08643 22.9139 6.17065 22.8802 6.24927C22.8465 6.32975 22.7979 6.40088 22.738 6.46265L22.7305 6.46826C22.6706 6.52629 22.6013 6.57308 22.5246 6.6049C22.4478 6.63672 22.3636 6.65544 22.2756 6.65544H16.1064C16.0783 6.65544 16.0577 6.63298 16.0577 6.60677V1.67098H12.9244V2.96248L15.2266 5.58106C15.2922 5.65592 15.3221 5.74951 15.3165 5.8431C15.3109 5.93481 15.2697 6.02466 15.1948 6.09204L15.1911 6.09391C15.1574 6.12199 15.1218 6.14445 15.0825 6.15755C15.0432 6.17253 15.0002 6.18001 14.959 6.18001H8.04289C7.94369 6.18001 7.85197 6.13883 7.78833 6.07332C7.72282 6.00781 7.68164 5.91797 7.68164 5.81877C7.68164 5.76636 7.69287 5.71769 7.71346 5.67277C7.73405 5.62598 7.764 5.5848 7.80143 5.55111L10.1711 2.96061V1.67098H6.99471V6.60116C6.99471 6.62923 6.97225 6.64982 6.94605 6.64982H0.655111C0.567139 6.64982 0.48291 6.63298 0.406169 6.59928C0.325684 6.56559 0.254557 6.51693 0.19279 6.45703C0.132894 6.39714 0.0842285 6.32414 0.0505371 6.24365C0.0168457 6.16878 0 6.08455 0 5.99658V1.6036C0 1.51563 0.0168457 1.4314 0.0505371 1.35278C0.0823568 1.2723 0.131022 1.20117 0.19279 1.14128C0.194661 1.13753 0.196533 1.13566 0.198405 1.13566C0.258301 1.07764 0.327555 1.03084 0.404297 0.999023C0.48291 0.965332 0.567139 0.948486 0.655111 0.948486H6.94417ZM0.655111 10.7433H22.3449C22.4329 10.7433 22.5171 10.762 22.5938 10.7939C22.6743 10.8276 22.7454 10.8762 22.8072 10.9361L22.8091 10.938C22.869 10.9979 22.9158 11.069 22.9495 11.1476C22.9813 11.2244 23 11.3086 23 11.3984V19.3833C23 19.4713 22.9813 19.5555 22.9495 19.6322C22.9176 19.709 22.8708 19.7782 22.8147 19.8381C22.8128 19.84 22.811 19.8438 22.8091 19.8456L22.8072 19.8475C22.7473 19.9074 22.6762 19.9561 22.5957 19.9879C22.519 20.0197 22.4347 20.0384 22.3468 20.0384H16.4695C16.4545 20.0422 16.4395 20.0459 16.4227 20.0496C16.404 20.0534 16.3853 20.0534 16.3665 20.0534C16.3478 20.0534 16.3291 20.0515 16.3104 20.0496C16.2935 20.0478 16.2786 20.044 16.2636 20.0384H6.73641C6.72144 20.0422 6.70646 20.0459 6.68962 20.0496C6.6709 20.0534 6.65218 20.0534 6.63346 20.0534C6.61475 20.0534 6.59603 20.0515 6.57731 20.0496C6.56047 20.0478 6.54549 20.044 6.53052 20.0384H0.655111C0.567139 20.0384 0.48291 20.0216 0.406169 19.9879C0.329427 19.9561 0.258301 19.9093 0.200277 19.8512C0.196533 19.8494 0.194661 19.8475 0.19279 19.8438C0.132894 19.7839 0.0842285 19.7109 0.0505371 19.6322C0.0168457 19.5555 0 19.4713 0 19.3833V11.3984C0 11.3105 0.0168457 11.2262 0.0505371 11.1476C0.0842285 11.0671 0.132894 10.996 0.19279 10.9342C0.194661 10.9324 0.196533 10.9305 0.200277 10.9286C0.260173 10.8706 0.329427 10.8238 0.406169 10.792C0.48291 10.7602 0.567139 10.7433 0.655111 10.7433ZM22.2775 11.4658H16.7278V19.3159H22.2775V11.4658ZM16.0053 11.4658H6.99471V13.214H16.0053V11.4658ZM6.27222 11.4658H0.722493V19.3159H6.27222V11.4658ZM6.99471 19.314H16.0053V13.9384H6.99471V19.314ZM12.2019 1.67098H10.8936V3.09725C10.8936 3.10099 10.8936 3.10474 10.8917 3.11035C10.8898 3.14966 10.8823 3.19084 10.8674 3.22827C10.8524 3.26945 10.828 3.30689 10.7981 3.34058L8.86084 5.45752H14.1579L12.2992 3.34432C12.2693 3.3125 12.2431 3.27319 12.2262 3.23202C12.2094 3.19084 12.2 3.14404 12.2 3.09725V1.67098H12.2019ZM17.5907 11.8701C17.6431 11.8701 17.6936 11.8813 17.7385 11.9001L17.7404 11.9019C17.7872 11.9207 17.8284 11.9506 17.8639 11.9843C17.8995 12.0199 17.9276 12.0629 17.9482 12.1097C17.9669 12.1546 17.9781 12.2052 17.9781 12.2576C17.9781 12.31 17.9669 12.3586 17.9482 12.4054C17.9276 12.4522 17.8995 12.4953 17.8639 12.5308L17.8602 12.5327C17.8246 12.5664 17.7834 12.5945 17.7367 12.6132C17.6917 12.6319 17.6412 12.6431 17.5888 12.6431C17.5364 12.6431 17.4858 12.6319 17.4409 12.6132C17.396 12.5945 17.3548 12.5664 17.3193 12.5327L17.3136 12.529C17.2781 12.4934 17.25 12.4504 17.2313 12.4036L17.2294 12.4017C17.2107 12.3568 17.2013 12.3081 17.2013 12.2557C17.2013 12.2033 17.2126 12.1528 17.2313 12.1078C17.25 12.061 17.2799 12.018 17.3155 11.9824C17.3511 11.9469 17.3941 11.9188 17.4409 11.8982L17.4428 11.8963C17.4915 11.8795 17.5401 11.8701 17.5907 11.8701ZM4.13468 2.0341C4.18709 2.0341 4.23763 2.04533 4.28255 2.06405C4.32935 2.08276 4.3724 2.11271 4.40796 2.14827C4.44352 2.18384 4.47347 2.22689 4.49219 2.27368C4.51091 2.3186 4.52214 2.36914 4.52214 2.42155C4.52214 2.47396 4.51091 2.5245 4.49219 2.56942C4.47347 2.61621 4.44539 2.65739 4.4117 2.69108L4.40609 2.6967C4.37052 2.73039 4.32935 2.75846 4.28255 2.77718C4.23763 2.7959 4.18709 2.80713 4.13468 2.80713C4.08228 2.80713 4.03361 2.7959 3.98682 2.77718C3.94002 2.75846 3.89697 2.72852 3.86141 2.69295L3.85767 2.68921C3.82397 2.65365 3.7959 2.61247 3.77718 2.56755C3.75846 2.52262 3.74723 2.47209 3.74723 2.41968C3.74723 2.36727 3.75846 2.31673 3.77718 2.27181L3.77905 2.26994C3.79777 2.22314 3.82772 2.18197 3.86141 2.1464C3.89697 2.11084 3.94002 2.08276 3.98682 2.06217L3.98869 2.0603C4.03548 2.04533 4.08415 2.0341 4.13468 2.0341ZM16.8045 1.67098H16.7802V5.9292H22.2101V1.67098H16.8045ZM18.5265 2.14453C18.5621 2.11084 18.6033 2.08276 18.6501 2.06405C18.695 2.04533 18.7455 2.0341 18.7979 2.0341C18.8503 2.0341 18.9009 2.04533 18.9458 2.06405L18.9477 2.06592C18.9945 2.08464 19.0356 2.11458 19.0712 2.14827C19.1068 2.18384 19.1348 2.22689 19.1554 2.27368C19.1742 2.3186 19.1854 2.36914 19.1854 2.42155C19.1854 2.47396 19.1742 2.5245 19.1554 2.56942L19.1536 2.57129C19.1348 2.61621 19.1068 2.65739 19.0731 2.69108L19.0675 2.6967C19.0319 2.73039 18.9907 2.75846 18.9458 2.77718C18.9009 2.7959 18.8503 2.80713 18.7979 2.80713C18.7455 2.80713 18.695 2.7959 18.6501 2.77718C18.6033 2.75846 18.5602 2.72852 18.5247 2.69295C18.4891 2.65739 18.461 2.61434 18.4404 2.56755C18.4217 2.52262 18.4105 2.47209 18.4105 2.41968C18.4105 2.36727 18.4217 2.3186 18.4404 2.27181C18.461 2.22502 18.4891 2.18197 18.5247 2.1464L18.5265 2.14453ZM5.32511 11.8701C5.37752 11.8701 5.42806 11.8813 5.47298 11.9001L5.47485 11.9019C5.52165 11.9225 5.56283 11.9506 5.59839 11.9843L5.60026 11.988C5.63395 12.0236 5.66203 12.0648 5.68075 12.1097L5.68262 12.1116C5.70133 12.1565 5.71069 12.2052 5.71069 12.2576C5.71069 12.31 5.69946 12.3586 5.68075 12.4054C5.66016 12.4522 5.63208 12.4953 5.59652 12.5308L5.59277 12.5327C5.55721 12.5664 5.51603 12.5945 5.46924 12.6132C5.42432 12.6319 5.37378 12.6431 5.32137 12.6431C5.26896 12.6431 5.21842 12.6319 5.1735 12.6132C5.12671 12.5945 5.08366 12.5645 5.0481 12.529C5.01253 12.4934 4.98446 12.4504 4.96387 12.4036L4.962 12.4017C4.94328 12.3568 4.93392 12.3081 4.93392 12.2557C4.93392 12.2033 4.94515 12.1528 4.96387 12.1078C4.98258 12.061 5.01253 12.018 5.0481 11.9824C5.08366 11.9469 5.12671 11.9188 5.1735 11.8982C5.22404 11.8813 5.27271 11.8701 5.32511 11.8701Z" fill="white"/>
</svg>
