<svg width="32" height="22" viewBox="0 0 32 22" fill="none" xmlns="http://www.w3.org/2000/svg">
<path d="M29.0999 0.75H13.4499C12.1999 0.75 11.1499 1.8 11.1499 3.05V3.4H4.2999C3.8499 3.4 3.4499 3.65 3.2499 4.05L0.749902 9.1C0.649902 9.25 0.649902 9.45 0.649902 9.65V17.45C0.649902 17.95 1.0499 18.35 1.5499 18.35H2.9999C3.2499 20.15 4.7999 21.5 6.6499 21.5C8.4999 21.5 10.0499 20.1 10.2999 18.35H12.0499H20.9999C21.2499 20.15 22.7999 21.5 24.6499 21.5C26.4999 21.5 28.0499 20.1 28.2999 18.35H30.1499C30.8499 18.35 31.3999 17.8 31.3999 17.1V3C31.3999 1.75 30.3499 0.75 29.0999 0.75ZM4.6499 5.1H11.1999V8.6H2.8999L4.6499 5.1ZM6.5999 19.7C5.4999 19.7 4.6499 18.8 4.6499 17.75C4.6499 16.7 5.5499 15.8 6.5999 15.8C7.6499 15.8 8.5499 16.7 8.5499 17.75C8.5499 18.8 7.6999 19.7 6.5999 19.7ZM6.5999 14.05C4.9999 14.05 3.5999 15.1 3.0999 16.55H2.3999V10.4H11.1999V16.55H10.1499C9.5999 15.1 8.2499 14.05 6.5999 14.05ZM24.6499 19.7C23.5499 19.7 22.6999 18.8 22.6999 17.75C22.6999 16.7 23.5999 15.8 24.6499 15.8C25.6999 15.8 26.5999 16.7 26.5999 17.75C26.5999 18.8 25.6999 19.7 24.6499 19.7ZM29.6499 16.55H28.1499C27.6499 15.1 26.2499 14.05 24.6499 14.05C23.0499 14.05 21.6499 15.1 21.1499 16.55H12.8999V3C12.8999 2.7 13.1499 2.45 13.4499 2.45H29.0999C29.3999 2.45 29.6499 2.7 29.6499 3V16.55Z" fill="#3056D3"/>
</svg>
