<svg width="31" height="24" viewBox="0 0 31 24" fill="none" xmlns="http://www.w3.org/2000/svg">
<path d="M27.1999 6.75021H26.6999V3.95021C26.6999 2.75021 26.1499 1.70021 25.1999 1.00021C24.2499 0.300213 23.0499 0.150213 21.9499 0.550213L4.0499 6.75021C2.1499 6.85021 0.649902 8.40021 0.649902 10.3502V20.0502C0.649902 22.0502 2.2499 23.6502 4.2499 23.6502H27.1999C29.1999 23.6502 30.7999 22.0502 30.7999 20.0502V10.3502C30.7999 8.35021 29.1499 6.75021 27.1999 6.75021ZM22.4999 2.20021C23.0499 2.00021 23.6999 2.10021 24.1999 2.45021C24.6999 2.80021 24.9999 3.35021 24.9999 3.95021V6.75021H9.3999L22.4999 2.20021ZM27.1999 21.9002H4.2499C3.2499 21.9002 2.3999 21.0502 2.3999 20.0502V10.3502C2.3999 9.35021 3.2499 8.50021 4.2499 8.50021H27.1999C28.1999 8.50021 29.0499 9.35021 29.0499 10.3502V11.7002H23.1999C21.2499 11.7002 19.6499 13.3002 19.6499 15.2502C19.6499 17.2002 21.2499 18.8002 23.1999 18.8002H29.0499V20.0002C29.0499 21.0502 28.1999 21.9002 27.1999 21.9002ZM29.0499 13.4502V17.1002H23.1999C22.1999 17.1002 21.3999 16.3002 21.3999 15.3002C21.3999 14.3002 22.1999 13.5002 23.1999 13.5002H29.0499V13.4502Z" fill="#3056D3"/>
</svg>
