<svg width="32" height="28" viewBox="0 0 32 28" fill="none" xmlns="http://www.w3.org/2000/svg">
<path d="M3.69986 12.2502C3.84986 12.2502 3.99986 12.2502 4.09986 12.2002L9.64986 10.2502C10.0999 10.1002 10.3499 9.6002 10.1999 9.1502C10.0499 8.7002 9.54986 8.4502 9.09986 8.6002L5.74986 9.8002C7.39986 5.2502 11.7499 2.1502 16.7999 2.1502C22.1499 2.1502 26.8499 5.7002 28.1499 10.8502C28.2499 11.3002 28.7499 11.6002 29.1999 11.5002C29.6499 11.4002 29.9499 10.9002 29.8499 10.4502C28.3499 4.5502 22.9499 0.450195 16.7999 0.450195C10.7999 0.450195 5.59986 4.3002 3.89986 9.9002L2.34986 5.5502C2.19986 5.1002 1.69986 4.8502 1.24986 5.0002C0.799858 5.1502 0.549858 5.6502 0.699858 6.1002L2.59986 11.5502C2.74986 11.9502 3.24986 12.2502 3.69986 12.2502Z" fill="#3056D3"/>
<path d="M31.2999 22.9503L29.2499 17.5503C29.1499 17.2503 28.8999 17.0003 28.5999 16.9003C28.2999 16.8003 27.9999 16.7503 27.6999 16.9003L22.1999 19.0003C21.7499 19.1503 21.4999 19.7003 21.6999 20.1503C21.8499 20.6003 22.3999 20.8503 22.8499 20.6503L26.2499 19.3503C24.3499 23.3003 20.2999 25.9003 15.6999 25.9003C10.6499 25.9003 6.19986 22.7503 4.64986 18.0503C4.44986 17.6003 3.94986 17.3503 3.49986 17.5003C3.04986 17.6503 2.79986 18.1503 2.94986 18.6003C4.74986 24.0003 9.84986 27.6503 15.6499 27.6503C21.1499 27.6503 26.0499 24.4003 28.0499 19.4503L29.6499 23.6003C29.7999 23.9503 30.0999 24.1503 30.4499 24.1503C30.5499 24.1503 30.6499 24.1503 30.7499 24.1003C31.2499 23.9003 31.4999 23.4003 31.2999 22.9503Z" fill="#3056D3"/>
</svg>
