<svg width="30" height="28" viewBox="0 0 30 28" fill="none" xmlns="http://www.w3.org/2000/svg">
<path d="M25.6109 10.2813C22.8822 9.11877 19.2159 8.36877 15.2984 8.16252C14.6734 8.12502 14.0647 8.11252 13.4859 8.11252C16.3834 4.57502 19.4884 2.20002 21.5322 2.12502C21.9347 2.10877 22.2759 2.19377 22.5484 2.37002C23.4309 2.94252 23.6797 4.58002 23.2297 6.85752C23.1797 7.17002 23.3797 7.47377 23.6797 7.53252C23.9922 7.59502 24.2922 7.39502 24.3547 7.08252C24.9172 4.23252 24.5047 2.27502 23.1797 1.41002C22.7047 1.10002 22.1297 0.953773 21.4922 0.977523C18.9297 1.07377 15.3172 3.85252 12.0047 8.12752C10.5622 8.17127 9.20468 8.29002 7.96468 8.48627C7.15718 4.86502 7.47718 2.26502 8.70718 1.64002C8.87968 1.54877 9.06343 1.50252 9.27843 1.48502C10.1497 1.41752 11.3534 1.97877 12.6659 3.07252C12.9084 3.27252 13.2734 3.24752 13.4734 2.99752C13.5215 2.93966 13.5576 2.87291 13.5798 2.80108C13.602 2.72924 13.6099 2.65373 13.6029 2.57886C13.596 2.50399 13.5743 2.43123 13.5392 2.36473C13.5041 2.29822 13.4563 2.23928 13.3984 2.19127C11.8234 0.887523 10.3709 0.250023 9.18343 0.337523C8.83462 0.365773 8.49418 0.459045 8.17968 0.612523C6.69218 1.37127 6.09218 3.52127 6.46718 6.66002C6.55468 7.31002 6.66718 7.98752 6.82968 8.68502C2.72843 9.50502 0.11593 11.1475 0.00342976 13.215C-0.0715702 14.6775 1.08468 16.07 3.35343 17.2425C3.42088 17.2835 3.49604 17.3101 3.57422 17.3207C3.6524 17.3313 3.73193 17.3258 3.80786 17.3043C3.8838 17.2829 3.95451 17.2461 4.0156 17.1961C4.07669 17.1462 4.12685 17.0842 4.16296 17.0141C4.19906 16.9439 4.22035 16.8671 4.22548 16.7884C4.23062 16.7096 4.2195 16.6307 4.19281 16.5564C4.16612 16.4822 4.12443 16.4142 4.07035 16.3568C4.01627 16.2993 3.95094 16.2536 3.87843 16.2225C2.06593 15.2888 1.09093 14.2375 1.14968 13.275C1.21218 11.925 3.36468 10.5375 7.09968 9.80002C7.43718 11.0425 7.87468 12.34 8.41218 13.6625C7.13968 16.0225 6.21718 18.3463 5.74093 20.4125C5.04093 23.4938 5.41593 25.6875 6.81593 26.5975C7.26593 26.89 7.79093 27.035 8.37468 27.035C9.54343 27.035 10.9584 26.46 12.5584 25.32C12.6234 25.2781 12.6791 25.2234 12.7224 25.1593C12.7656 25.0952 12.7954 25.0231 12.81 24.9471C12.8246 24.8712 12.8237 24.7931 12.8073 24.7176C12.7908 24.642 12.7593 24.5706 12.7145 24.5075C12.6697 24.4445 12.6127 24.3912 12.5467 24.3508C12.4808 24.3105 12.4074 24.2839 12.3309 24.2727C12.2544 24.2615 12.1764 24.2659 12.1016 24.2856C12.0269 24.3053 11.9569 24.34 11.8959 24.3875C9.96593 25.7663 8.34093 26.2275 7.44343 25.6413C6.49343 25.0225 6.28593 23.2125 6.86843 20.6713C7.26843 18.9388 8.00218 17.0088 9.00343 15.0213C9.25343 15.5688 9.51593 16.1163 9.79093 16.6625C11.5722 20.1575 13.7534 23.1963 15.9284 25.2188C17.6609 26.8313 19.2709 27.6725 20.5972 27.6725C21.0347 27.6725 21.4472 27.5788 21.8172 27.3938C23.2484 26.6625 23.8672 24.6313 23.5647 21.675C23.2847 18.9088 22.2397 15.5375 20.6222 12.175C20.5539 12.0418 20.4364 11.9405 20.2946 11.8926C20.1528 11.8446 19.9979 11.8539 19.8629 11.9183C19.7278 11.9828 19.6232 12.0973 19.5712 12.2377C19.5193 12.3781 19.5241 12.5332 19.5847 12.67C22.9472 19.6725 23.1847 25.4075 21.2972 26.37C19.3097 27.3863 14.5172 23.4263 10.8097 16.145C10.3847 15.3263 10.0134 14.52 9.68468 13.7325C10.1097 12.9725 10.5597 12.2075 11.0534 11.445C11.5472 10.69 12.0609 9.96002 12.5834 9.26377H13.0759C13.7509 9.26377 14.4834 9.27627 15.2434 9.32377C23.4059 9.75252 28.9622 12.5238 28.8484 14.7413C28.7984 15.6975 27.6934 16.6638 25.8172 17.3913C25.6762 17.4481 25.5631 17.558 25.5024 17.6973C25.4416 17.8367 25.4379 17.9943 25.4922 18.1363C25.5189 18.2068 25.5593 18.2713 25.6112 18.3261C25.663 18.3808 25.7253 18.4247 25.7943 18.4552C25.8632 18.4857 25.9376 18.5021 26.013 18.5036C26.0884 18.5051 26.1633 18.4915 26.2334 18.4638C28.6147 17.5388 29.9209 16.2688 29.9959 14.8013C30.0834 13.1388 28.5334 11.5388 25.6209 10.3013V10.2888L25.6109 10.2813ZM10.0909 10.8125C9.75343 11.3313 9.44093 11.8463 9.13593 12.3675C8.78939 11.46 8.48778 10.536 8.23218 9.59877C9.12343 9.46127 10.0884 9.36127 11.1197 9.29877C10.7697 9.78627 10.4272 10.2913 10.0947 10.8113V10.7988L10.0909 10.8125ZM14.9972 12.2813C14.5413 12.2813 14.1042 12.4624 13.7818 12.7847C13.4595 13.107 13.2784 13.5442 13.2784 14C13.2784 14.4559 13.4595 14.893 13.7818 15.2154C14.1042 15.5377 14.5413 15.7188 14.9972 15.7188C15.453 15.7188 15.8902 15.5377 16.2125 15.2154C16.5348 14.893 16.7159 14.4559 16.7159 14C16.7159 13.5442 16.5348 13.107 16.2125 12.7847C15.8902 12.4624 15.453 12.2813 14.9972 12.2813Z" fill="#B8B8B8"/>
</svg>
