<svg width="32" height="30" viewBox="0 0 32 30" fill="none" xmlns="http://www.w3.org/2000/svg">
<path d="M16.2274 0.695826C15.9717 0.700509 15.728 0.8054 15.5488 0.987931C15.3696 1.17046 15.2693 1.41604 15.2693 1.67183V20.2238C15.2693 20.4827 15.3721 20.7309 15.5552 20.914C15.7382 21.097 15.9864 21.1998 16.2453 21.1998C16.5041 21.1998 16.7523 21.0969 16.9353 20.9139C17.1182 20.7308 17.221 20.4826 17.221 20.2238V1.67196C17.221 1.54229 17.1952 1.41393 17.1451 1.29435C17.0949 1.17477 17.0215 1.06639 16.929 0.975525C16.8365 0.884662 16.7268 0.813141 16.6063 0.76514C16.4859 0.717139 16.3571 0.693621 16.2274 0.695959V0.695826ZM30.9929 6.25383C30.8658 6.25761 30.7406 6.28614 30.6244 6.33783L22.248 10.076C22.0765 10.1533 21.931 10.2785 21.829 10.4365C21.7269 10.5945 21.6727 10.7786 21.6727 10.9667C21.6727 11.1548 21.7269 11.3389 21.829 11.4969C21.931 11.6549 22.0765 11.7801 22.248 11.8574L30.6244 15.6086C30.7499 15.665 30.8858 15.6945 31.0234 15.695C31.2471 15.6951 31.4641 15.6183 31.6379 15.4775C31.8118 15.3367 31.932 15.1405 31.9784 14.9216C32.0249 14.7028 31.9947 14.4746 31.893 14.2754C31.7914 14.0761 31.6243 13.9178 31.4198 13.827L25.0385 10.968L31.4198 8.11916C31.6555 8.01306 31.8397 7.818 31.9321 7.57657C32.0245 7.33515 32.0176 7.06698 31.9129 6.83063C31.8337 6.65436 31.704 6.5055 31.5403 6.40283C31.3765 6.30016 31.1861 6.24826 30.9929 6.25369V6.25383ZM0.994227 12.9632C0.843734 12.9603 0.694614 12.9922 0.558536 13.0566C0.422458 13.1209 0.303114 13.2159 0.209844 13.334C0.116574 13.4521 0.0519097 13.5903 0.0209107 13.7376C-0.0100882 13.8848 -0.00658039 14.0373 0.0311597 14.183C2.34583 23.0857 10.3976 29.3044 19.6074 29.3044C19.8663 29.3044 20.1145 29.2015 20.2976 29.0185C20.4806 28.8355 20.5834 28.5872 20.5834 28.3284C20.5834 28.0695 20.4806 27.8213 20.2976 27.6382C20.1145 27.4552 19.8663 27.3524 19.6074 27.3524C15.5632 27.3537 11.6327 26.0134 8.43188 23.5415C5.23102 21.0696 2.94059 17.6057 1.91943 13.6925C1.8658 13.4867 1.74639 13.304 1.57936 13.1724C1.41234 13.0407 1.20686 12.9672 0.994227 12.9632Z" fill="#B8B8B8"/>
</svg>
