<svg width="28" height="28" viewBox="0 0 28 28" fill="none" xmlns="http://www.w3.org/2000/svg">
<path d="M0.938502 21.7727C0.950127 21.7468 0.963335 21.7214 0.978155 21.6964L13.3552 0.866878C13.6454 0.378586 14.3519 0.377495 14.6436 0.864888L27.2099 21.8649C27.2709 21.9669 27.3049 22.0775 27.3139 22.1884C27.4363 22.4482 27.5 22.719 27.5 23C27.5 25.7311 21.4856 27.5 14 27.5C6.51436 27.5 0.5 25.7311 0.5 23C0.5 22.5654 0.652268 22.1553 0.938502 21.7727ZM3.75067 19.9669C6.22168 19.0335 9.88896 18.5 14 18.5C18.1666 18.5 21.8774 19.048 24.3489 20.005L14.0023 2.71439L3.75067 19.9669ZM2.10343 22.6557C2.03521 22.771 2 22.8861 2 23C2 24.4111 7.40238 26 14 26C20.5976 26 26 24.4111 26 23C26 21.5889 20.5976 20 14 20C8.31755 20 3.52175 21.1787 2.30061 22.4073L2.26768 22.4627C2.22293 22.538 2.16707 22.6026 2.10343 22.6557Z" fill="#B8B8B8"/>
</svg>
