<svg width="28" height="30" viewBox="0 0 28 30" fill="none" xmlns="http://www.w3.org/2000/svg">
<path d="M10.1165 6.49992C9.80584 8.67145 8.0882 10.3891 5.91667 10.6997V19.3001C8.31954 19.6438 10.1667 21.7103 10.1667 24.2083C10.1667 26.9467 7.94675 29.1666 5.20833 29.1666C2.46992 29.1666 0.25 26.9467 0.25 24.2083C0.25 21.7103 2.09713 19.6438 4.5 19.3001V10.6997C2.09713 10.356 0.25 8.2895 0.25 5.79159C0.25 3.05317 2.46992 0.833252 5.20833 0.833252C7.70625 0.833252 9.77275 2.68038 10.1165 5.08325H16.5417C20.0625 5.08325 22.9167 7.93744 22.9167 11.4583V12.2168C25.3195 12.5605 27.1667 14.627 27.1667 17.1249C27.1667 19.8633 24.9467 22.0833 22.2083 22.0833C19.4699 22.0833 17.25 19.8633 17.25 17.1249C17.25 14.627 19.0971 12.5605 21.5 12.2168V11.4583C21.5 8.71984 19.2801 6.49992 16.5417 6.49992H10.1165ZM1.66667 5.79159C1.66667 7.74759 3.25233 9.33325 5.20833 9.33325C7.16434 9.33325 8.75 7.74759 8.75 5.79159C8.75 3.83558 7.16434 2.24992 5.20833 2.24992C3.25233 2.24992 1.66667 3.83558 1.66667 5.79159ZM1.66667 24.2083C1.66667 26.1643 3.25233 27.7499 5.20833 27.7499C7.16434 27.7499 8.75 26.1643 8.75 24.2083C8.75 22.2522 7.16434 20.6666 5.20833 20.6666C3.25233 20.6666 1.66667 22.2522 1.66667 24.2083ZM22.2083 13.5833C20.2523 13.5833 18.6667 15.1689 18.6667 17.1249C18.6667 19.0809 20.2523 20.6666 22.2083 20.6666C24.1643 20.6666 25.75 19.0809 25.75 17.1249C25.75 15.1689 24.1643 13.5833 22.2083 13.5833Z" fill="#B8B8B8"/>
</svg>
