<svg width="23" height="29" viewBox="0 0 23 29" fill="none" xmlns="http://www.w3.org/2000/svg">
<path d="M6.87531 14.5C6.87531 11.9457 8.94599 9.87497 11.5003 9.87497C14.0546 9.87497 16.1253 11.9457 16.1253 14.5C16.1253 17.0543 14.0546 19.125 11.5003 19.125C8.94599 19.125 6.87531 17.0543 6.87531 14.5ZM8.41698 14.5C8.41698 16.2029 9.79743 17.5833 11.5003 17.5833C13.2032 17.5833 14.5836 16.2029 14.5836 14.5C14.5836 12.7971 13.2032 11.4166 11.5003 11.4166C9.79743 11.4166 8.41698 12.7971 8.41698 14.5ZM5.13439 9.62133C4.84876 9.937 4.3613 9.96135 4.04563 9.67572C3.72995 9.39009 3.7056 8.90263 3.99123 8.58695C4.21739 8.33701 4.45588 8.09851 4.70583 7.87236C8.85298 4.11987 15.2569 4.4398 19.0094 8.58695C19.295 8.90263 19.2707 9.39009 18.955 9.67572C18.6393 9.96135 18.1519 9.937 17.8662 9.62133C14.685 6.10553 9.256 5.83429 5.7402 9.01552C5.5283 9.20724 5.32612 9.40943 5.13439 9.62133ZM22.1087 5.52183C22.3843 5.84632 22.3446 6.33277 22.0201 6.60835C21.6956 6.88393 21.2092 6.84427 20.9336 6.51978C16.5091 1.30992 8.69886 0.673279 3.489 5.09781C2.97722 5.53244 2.50166 6.008 2.06702 6.51978C1.79144 6.84427 1.30499 6.88393 0.980503 6.60835C0.656011 6.33277 0.616358 5.84632 0.891935 5.52183C1.38071 4.9463 1.91551 4.4115 2.49104 3.92272C8.34989 -1.05296 17.133 -0.337014 22.1087 5.52183ZM17.8643 19.3807C18.1488 19.064 18.6362 19.0379 18.9529 19.3223C19.2696 19.6068 19.2958 20.0942 19.0113 20.4109C15.2854 24.5591 8.90219 24.9014 4.75399 21.1756C4.48563 20.9345 4.23038 20.6793 3.98934 20.4109C3.70487 20.0942 3.73101 19.6068 4.04772 19.3223C4.36444 19.0379 4.85181 19.064 5.13628 19.3807C5.34051 19.6081 5.55679 19.8244 5.78417 20.0286C9.29893 23.1855 14.7074 22.8955 17.8643 19.3807ZM20.9339 22.4799C21.2096 22.1555 21.6961 22.1161 22.0204 22.3919C22.3448 22.6676 22.3842 23.1541 22.1084 23.4784C17.1275 29.3371 8.34023 30.0487 2.48153 25.0678C1.90979 24.5817 1.37828 24.0502 0.892201 23.4784C0.616452 23.1541 0.655843 22.6676 0.980187 22.3919C1.30453 22.1161 1.791 22.1555 2.06675 22.4798C2.49901 22.9883 2.97167 23.4609 3.48011 23.8932C8.69012 28.3226 16.5044 27.6899 20.9339 22.4799Z" fill="#B8B8B8"/>
</svg>
