<svg width="40" height="40" viewBox="0 0 40 40" fill="none" xmlns="http://www.w3.org/2000/svg">
<path d="M20.0003 39.1998C9.41279 39.1998 0.800293 30.5873 0.800293 19.9998C0.800293 9.4123 9.41279 0.799805 20.0003 0.799805C30.5878 0.799805 39.2003 9.4123 39.2003 19.9998C39.2003 30.5873 30.5878 39.1998 20.0003 39.1998ZM19.2315 38.2836C19.4865 38.2948 19.7428 38.2998 20.0003 38.2998C25.9265 38.2998 31.204 35.4686 34.5503 31.0873V15.0098H35.4515V29.7986C37.254 26.9636 38.3003 23.6023 38.3003 19.9998C38.3003 17.5011 37.7978 15.1198 36.8878 12.9486L22.954 4.9048L23.404 4.1248L36.2153 11.5211C33.4978 6.3448 28.374 2.6223 22.339 1.84855L8.40404 9.8948L7.95404 9.1148L20.769 1.71605C20.5153 1.7048 20.2578 1.6998 20.0003 1.6998C14.074 1.6998 8.79654 4.5323 5.45029 8.91355V24.9911H4.55029V10.2011C2.74654 13.0361 1.70029 16.3986 1.70029 19.9998C1.70029 22.4973 2.20279 24.8786 3.11279 27.0511L17.0465 35.0961L16.5965 35.8748L3.78529 28.4773C6.50279 33.6548 11.6265 37.3773 17.6615 38.1511L31.5965 30.1048L32.0453 30.8836L19.2315 38.2836ZM13.3415 27.0948C12.3215 27.0948 11.3278 26.5661 10.7815 25.6198C10.389 24.9398 10.2853 24.1461 10.4903 23.3836C10.6953 22.6198 11.1815 21.9836 11.8615 21.5911L18.7178 17.6323C18.809 15.7911 19.834 14.1011 21.4378 13.1761C23.5928 11.9323 26.3128 12.3023 28.0515 14.0773C28.149 14.1773 28.1953 14.3148 28.1765 14.4536C28.1578 14.5911 28.0765 14.7136 27.9553 14.7823L23.7628 17.2036C23.3803 17.4236 23.2503 17.9148 23.4703 18.2973C23.6928 18.6786 24.1828 18.8123 24.564 18.5898L28.7565 16.1686C28.8753 16.0986 29.024 16.0898 29.1503 16.1411C29.2803 16.1936 29.3765 16.3023 29.414 16.4373C30.0815 18.8323 29.0428 21.3723 26.8878 22.6161C25.2878 23.5423 23.3115 23.5836 21.6678 22.7448L14.8128 26.7023C14.349 26.9673 13.8415 27.0948 13.3415 27.0948V27.0948ZM24.1628 13.3436C23.384 13.3436 22.5978 13.5436 21.8865 13.9548C20.484 14.7648 19.6128 16.2748 19.6103 17.8961C19.6103 18.0561 19.5253 18.2048 19.3853 18.2848L12.3115 22.3698C11.8403 22.6423 11.5015 23.0848 11.359 23.6148C11.2165 24.1461 11.2878 24.6973 11.5603 25.1698C12.1265 26.1486 13.384 26.4861 14.3615 25.9211L21.4365 21.8361C21.5753 21.7561 21.7465 21.7561 21.8853 21.8361C23.2903 22.6448 25.0353 22.6436 26.4378 21.8348C28.064 20.8961 28.929 19.0736 28.669 17.2548L25.0115 19.3661C24.2015 19.8348 23.159 19.5548 22.6903 18.7436C22.2215 17.9311 22.5015 16.8898 23.3128 16.4211L26.969 14.3098C26.1565 13.6748 25.164 13.3436 24.1628 13.3436V13.3436Z" fill="#545A61"/>
</svg>
