<svg width="40" height="40" viewBox="0 0 40 40" fill="none" xmlns="http://www.w3.org/2000/svg">
<path d="M10 19.3445V30H20.6556L18.4333 27.7778H12.2222V21.5667L10 19.3445Z" fill="#545A61"/>
<path d="M38.7439 35.8776L35.555 32.6443V35.5554H4.44392V30.9443H6.66614V29.1665H4.44392V21.7776H6.66614V19.9998H4.44392V12.8887H6.66614V11.111H4.44392V4.89984L22.155 22.511V19.3776L4.1217 1.43318C3.96629 1.27648 3.76773 1.16961 3.55134 1.1262C3.33496 1.08279 3.11055 1.1048 2.90672 1.18943C2.70289 1.27406 2.52889 1.41747 2.40688 1.60138C2.28488 1.78529 2.22042 2.00137 2.2217 2.22207V36.6665C2.2217 36.9612 2.33876 37.2438 2.54714 37.4522C2.75551 37.6606 3.03812 37.7776 3.33281 37.7776H37.955C38.1757 37.7789 38.3918 37.7144 38.5757 37.5924C38.7596 37.4704 38.903 37.2964 38.9877 37.0926C39.0723 36.8888 39.0943 36.6644 39.0509 36.448C39.0075 36.2316 38.9006 36.033 38.7439 35.8776Z" fill="#545A61"/>
<path d="M26.6666 33.3335H31.111C31.7004 33.3335 32.2656 33.0993 32.6824 32.6826C33.0991 32.2658 33.3332 31.7006 33.3332 31.1112V9.6668L30.7777 4.96679C30.58 4.62437 30.2946 4.34088 29.9508 4.14557C29.6071 3.95025 29.2174 3.85018 28.8221 3.85568C28.4178 3.85889 28.0221 3.97233 27.6775 4.18379C27.3329 4.39524 27.0525 4.6967 26.8666 5.05568L24.4443 9.68902V31.1112C24.4443 31.7006 24.6785 32.2658 25.0952 32.6826C25.512 33.0993 26.0772 33.3335 26.6666 33.3335ZM26.6666 10.2224L28.8221 6.03346L31.111 10.2335V26.6668H26.6666V10.2224ZM26.6666 28.4779H31.111V31.189H26.6666V28.4779Z" fill="#545A61"/>
</svg>
