<svg width="94" height="94" viewBox="0 0 94 94" fill="none" xmlns="http://www.w3.org/2000/svg">
<circle cx="47" cy="47" r="46" stroke="white" stroke-width="2"/>
<path d="M36.7556 57.6923H30.7627C26.9113 57.6923 23.7891 54.5927 23.7891 50.7692V36.9231C23.7891 33.0996 26.9113 30 30.7627 30H50.2891C54.0782 30 57.1615 33.0001 57.2603 36.7381L63.4765 31.5955C66.1986 29.3436 70.2442 29.7087 72.5125 32.411C73.4734 33.5557 73.9996 34.9985 73.9996 36.4885V51.2038C73.9996 54.7214 71.1271 57.573 67.5838 57.573C66.0829 57.573 64.6295 57.0506 63.4765 56.0968L57.2603 50.9542C57.1615 54.6922 54.0782 57.6923 50.2891 57.6923H44.2962L51.1967 63.5641C51.7816 64.0617 51.8493 64.9358 51.348 65.5165C50.8467 66.0971 49.9662 66.1643 49.3814 65.6666L40.5259 58.1313L31.6704 65.6666C31.0856 66.1643 30.2051 66.0971 29.7038 65.5165C29.2025 64.9358 29.2702 64.0617 29.8551 63.5641L36.7556 57.6923ZM54.4733 48.0091C54.4732 48.0025 54.4732 47.996 54.4733 47.9894V39.7029C54.4732 39.6963 54.4732 39.6898 54.4733 39.6832V36.9231C54.4733 34.629 52.5999 32.7692 50.2891 32.7692H30.7627C28.4519 32.7692 26.5785 34.629 26.5785 36.9231V50.7692C26.5785 53.0633 28.4519 54.9231 30.7627 54.9231H50.2891C52.5999 54.9231 54.4733 53.0633 54.4733 50.7692V48.0091ZM57.2627 40.3408V47.3515L65.2623 53.9694C65.914 54.5085 66.7355 54.8038 67.5838 54.8038C69.5866 54.8038 71.2101 53.192 71.2101 51.2038V36.4885C71.2101 35.6463 70.9127 34.8308 70.3696 34.1838C69.0875 32.6565 66.8008 32.4501 65.2623 33.7229L57.2627 40.3408Z" fill="white"/>
</svg>
