<svg width="94" height="94" viewBox="0 0 94 94" fill="none" xmlns="http://www.w3.org/2000/svg">
<circle cx="47" cy="47" r="46" stroke="white" stroke-width="2"/>
<path d="M31.1 65.9H63.9C66.1644 65.9 68 64.0644 68 61.8V40.48C68 38.2156 66.1644 36.38 63.9 36.38H57.75L52.625 29H42.375L37.25 36.38H31.1C28.8356 36.38 27 38.2156 27 40.48V61.8C27 64.0644 28.8356 65.9 31.1 65.9Z" stroke="white" stroke-width="3" stroke-linecap="round" stroke-linejoin="round"/>
<path d="M47.4998 57.7C52.0285 57.7 55.6998 54.0288 55.6998 49.5C55.6998 44.9713 52.0285 41.3 47.4998 41.3C42.9711 41.3 39.2998 44.9713 39.2998 49.5C39.2998 54.0288 42.9711 57.7 47.4998 57.7Z" stroke="white" stroke-width="3" stroke-linecap="round" stroke-linejoin="round"/>
</svg>
