<svg width="94" height="94" viewBox="0 0 94 94" fill="none" xmlns="http://www.w3.org/2000/svg">
<g filter="url(#filter0_d_359_3)">
<circle cx="51" cy="47" r="46" stroke="white" stroke-width="2"/>
<path fill-rule="evenodd" clip-rule="evenodd" d="M34.6667 39.8333C33.378 39.8333 32.3333 40.878 32.3333 42.1667V49.1666C32.3333 50.4553 33.378 51.5 34.6667 51.5H39.3333V39.8333H34.6667ZM39.3333 53.8333H37V63.1666C37 63.8109 37.5223 64.3333 38.1666 64.3333C38.811 64.3333 39.3333 63.8109 39.3333 63.1666V53.8333ZM34.6667 53.8333C32.0893 53.8333 30 51.7439 30 49.1666V42.1667C30 39.5894 32.0893 37.5 34.6667 37.5H40.5C41.1443 37.5 41.6666 38.0223 41.6666 38.6667V63.1666C41.6666 65.0996 40.0997 66.6666 38.1666 66.6666C36.2336 66.6666 34.6667 65.0996 34.6667 63.1666V53.8333Z" fill="white"/>
<path fill-rule="evenodd" clip-rule="evenodd" d="M58.5614 27.144C58.9347 27.3489 59.1666 27.7409 59.1666 28.1667V39.8333C61.7439 39.8333 63.8333 41.9227 63.8333 44.5V45.6666C63.8333 48.2439 61.7439 50.3333 59.1666 50.3333V61.9999C59.1666 62.4257 58.9347 62.8177 58.5614 63.0226C58.1881 63.2275 57.7328 63.2128 57.3736 62.9842L44.5403 54.8176C44.2038 54.6034 44 54.2321 44 53.8333V36.3333C44 35.9344 44.2038 35.5632 44.5403 35.349L57.3736 27.1824C57.7328 26.9538 58.1881 26.9391 58.5614 27.144V27.144ZM59.1666 47.9999C60.4553 47.9999 61.5 46.9553 61.5 45.6666V44.5C61.5 43.2113 60.4553 42.1666 59.1666 42.1666V47.9999ZM46.3333 36.9737V53.1929L56.8333 59.8746V30.2919L46.3333 36.9737Z" fill="white"/>
<path fill-rule="evenodd" clip-rule="evenodd" d="M70.637 39.1861C70.9944 39.7222 70.8495 40.4466 70.3134 40.804L66.8134 43.1373C66.2773 43.4948 65.553 43.3499 65.1956 42.8138C64.8381 42.2777 64.983 41.5533 65.5191 41.1958L69.0191 38.8625C69.5552 38.5052 70.2796 38.6501 70.637 39.1861ZM64.9996 46.8333C64.9996 46.1889 65.5219 45.6666 66.1663 45.6666H70.8329C71.4773 45.6666 71.9996 46.1889 71.9996 46.8333C71.9996 47.4776 71.4773 47.9999 70.8329 47.9999H66.1663C65.5219 47.9999 64.9996 47.4776 64.9996 46.8333ZM65.1956 50.8528C65.553 50.3167 66.2773 50.1718 66.8134 50.5292L70.3134 52.8625C70.8495 53.2199 70.9944 53.9443 70.637 54.4804C70.2796 55.0165 69.5552 55.1614 69.0191 54.8039L65.5191 52.4706C64.983 52.1132 64.8381 51.3889 65.1956 50.8528Z" fill="white"/>
</g>
<defs>
<filter id="filter0_d_359_3" x="0" y="0" width="94" height="94" filterUnits="userSpaceOnUse" color-interpolation-filters="sRGB">
<feFlood flood-opacity="0" result="BackgroundImageFix"/>
<feColorMatrix in="SourceAlpha" type="matrix" values="0 0 0 0 0 0 0 0 0 0 0 0 0 0 0 0 0 0 127 0" result="hardAlpha"/>
<feOffset dy="4"/>
<feGaussianBlur stdDeviation="2"/>
<feComposite in2="hardAlpha" operator="out"/>
<feColorMatrix type="matrix" values="0 0 0 0 0 0 0 0 0 0 0 0 0 0 0 0 0 0 0.25 0"/>
<feBlend mode="normal" in2="BackgroundImageFix" result="effect1_dropShadow_359_3"/>
<feBlend mode="normal" in="SourceGraphic" in2="effect1_dropShadow_359_3" result="shape"/>
</filter>
</defs>
</svg>
